<?xml version="1.0" encoding="UTF-8"?>
<svg width="269px" height="47px" viewBox="0 0 269 47" version="1.1" xmlns="http://www.w3.org/2000/svg" xmlns:xlink="http://www.w3.org/1999/xlink">
    <!-- Generator: Sketch 52.5 (67469) - http://www.bohemiancoding.com/sketch -->
    <title>Untitled</title>
    <desc>Created with Sketch.</desc>
    <g id="Page-1" stroke="none" stroke-width="1" fill="none" fill-rule="evenodd">
        <g id="bitwize-logo" fill="#FFFFFF">
            <g id="Group" transform="translate(53.000000, 8.000000)" fill-rule="nonzero">
                <path d="M182.5,23.4 C182.3,24.3 183,24.9 184.6,25 L208.4,25 L206.9,28.4 L179.7,28.4 C176.4,28.4 174.9,27.4 175,25.5 L180.7,13 C181.7,11.3 183.3,10 185.5,9.1 C187.3,8.3 189.1,8 190.8,8 L215.3,8 L211,17.5 C210.7,18.2 210.2,18.9 209.6,19.4 C208.5,20.5 207,21.1 205.1,21.1 L183.5,21.1 L182.5,23.4 Z M188.8,11.8 C187.8,12.4 187.2,13.1 186.8,14 L184.9,18.1 L201.5,18.1 C202.7,18.1 203.6,17.9 204.4,17.6 C205.1,17 205.6,16.4 205.9,15.7 L208.1,10.9 L191.8,10.9 C190.8,10.9 189.8,11.2 188.8,11.8 Z" id="Shape"></path>
                <path d="M149.3,0.2 L141.5,1.7 L139.4,6.2 L147.2,4.7 L149.3,0.2 Z M149.6,8 L148.3,11 L170.8,11 L169.5,13.7 C169.1,14.6 168.4,15.3 167.5,15.9 C166.6,16.4 165.6,16.7 164.6,16.7 L150.9,16.7 C147.4,16.7 145.2,17.9 144.1,20.1 L137.2,35.2 L136.8,35.2 C135.2,35.2 134.4,34.7 134.4,33.6 C134.4,33.2 134.5,32.8 134.7,32.4 L146.2,7.1 L138.4,8.6 L127.3,33.1 C127.2,33.5 127.2,33.8 127.2,34.1 C127.2,35.5 127.9,36.5 129.3,37.3 C130.4,38 131.8,38.3 133.3,38.3 L137,38.3 L167.9,38.3 L169.2,35.2 L144.3,35.2 L150.6,21.5 C151,20.6 151.9,20.1 153.2,19.8 C153.8,19.7 154.8,19.6 156.5,19.6 L165.7,19.6 C167.4,19.6 169.2,19.2 171.2,18.4 C173.6,17.4 175.3,16.1 176.3,14.4 L179.3,7.8 L149.6,7.8 L149.6,8 Z M58.5,0.2 L50.7,1.7 L48.6,6.2 L56.4,4.7 L58.5,0.2 Z M127.4,8 L119.4,25.5 L107.8,25.5 L115.8,8 L108.7,8 L100.7,25.5 L92.8,25.5 C91.1,25.5 90.2,24.9 90.2,23.6 C90.2,23.2 90.3,22.8 90.5,22.5 L97.1,8 L91.8,8 L69.2,8 L72.7,0.3 L65.2,1.8 L62.3,8.1 L56.6,8.1 L55.3,11 L61,11 L51.1,33 C50.9,33.5 50.9,33.9 50.9,34.3 C50.9,34.6 50.9,34.9 51,35.3 L46,35.3 C44.4,35.3 43.6,34.7 43.6,33.5 C43.6,33.1 43.7,32.7 43.9,32.3 L55.4,7.1 L47.6,8.6 L36.4,33 C36.3,33.4 36.3,33.7 36.3,34 C36.3,35.4 36.9,36.6 38.3,37.4 C39.4,38.1 40.7,38.4 42.2,38.4 L56.7,38.4 L76.7,38.4 L78.1,35.2 L60.4,35.2 C58.8,35.2 57.9,34.6 57.9,33.4 C57.9,33.1 58,32.7 58.2,32.2 L67.9,10.8 L88.8,10.8 L83.2,23.2 C83,23.6 83,24 83,24.5 C83,25.8 83.7,26.8 85.2,27.5 C86.4,28.1 87.7,28.4 89.1,28.4 L125.1,28.4 L134.4,7.9 L127.4,7.9 L127.4,8 Z M41,11.9 C41,10.6 40.3,9.6 38.8,8.9 C37.7,8.3 36.4,8 34.9,8 L16.6,8 L20.1,0.3 L12.3,1.8 L0.1,28.5 L27.2,28.5 C30.7,28.5 33.9,28.1 35.1,25.6 L40.8,13.2 C40.9,12.7 41,12.3 41,11.9 Z M33.4,13.9 L29,23.4 C28.3,24.5 27.1,25 25.4,25 L8.7,25 L15.1,10.9 L31.1,10.9 C32.7,10.9 33.6,11.5 33.6,12.7 C33.6,13.2 33.5,13.6 33.4,13.9 Z" id="Shape"></path>
            </g>
            <path d="M46.3,23.2 C46.3,10.6 36,0.3 23.4,0.3 C10.7,0.3 0.4,10.6 0.4,23.2 C0.4,35.9 10.7,46.1 23.3,46.1 C26.4,46.1 29.3,45.5 31.9,44.4 C29.2,44.1 27.1,41.8 27.1,39 C27.1,36 29.5,33.5 32.6,33.5 C35.6,33.5 38.1,35.9 38.1,39 C38.1,39.7 38,40.4 37.7,41.1 C42.9,36.9 46.3,30.5 46.3,23.2 Z" id="Path"></path>
        </g>
    </g>
</svg>