<svg enable-background="new 0 0 272.3 50.3" viewBox="0 0 272.3 50.3" xmlns="http://www.w3.org/2000/svg"><path d="m237.5 33.4c-.2.9.5 1.5 2.1 1.6h23.8l-1.5 3.4h-27.2c-3.3 0-4.8-1-4.7-2.9l5.7-12.5c1-1.7 2.6-3 4.8-3.9 1.8-.8 3.6-1.1 5.3-1.1h24.5l-4.3 9.5c-.3.7-.8 1.4-1.4 1.9-1.1 1.1-2.6 1.7-4.5 1.7h-21.6zm6.3-11.6c-1 .6-1.6 1.3-2 2.2l-1.9 4.1h16.6c1.2 0 2.1-.2 2.9-.5.7-.6 1.2-1.2 1.5-1.9l2.2-4.8h-16.3c-1 0-2 .3-3 .9z"/><path d="m204.3 10.2-7.8 1.5-2.1 4.5 7.8-1.5zm.3 7.8-1.3 3h22.5l-1.3 2.7c-.4.9-1.1 1.6-2 2.2-.9.5-1.9.8-2.9.8h-13.7c-3.5 0-5.7 1.2-6.8 3.4l-6.9 15.1h-.4c-1.6 0-2.4-.5-2.4-1.6 0-.4.1-.8.3-1.2l11.5-25.3-7.8 1.5-11.1 24.5c-.1.4-.1.7-.1 1 0 1.4.7 2.4 2.1 3.2 1.1.7 2.5 1 4 1h3.7 30.9l1.3-3.1h-24.9l6.3-13.7c.4-.9 1.3-1.4 2.6-1.7.6-.1 1.6-.2 3.3-.2h9.2c1.7 0 3.5-.4 5.5-1.2 2.4-1 4.1-2.3 5.1-4l3-6.6h-29.7zm-91.1-7.8-7.8 1.5-2.1 4.5 7.8-1.5zm68.9 7.8-8 17.5h-11.6l8-17.5h-7.1l-8 17.5h-7.9c-1.7 0-2.6-.6-2.6-1.9 0-.4.1-.8.3-1.1l6.6-14.5h-5.3-22.6l3.5-7.7-7.5 1.5-2.9 6.3h-5.7l-1.3 2.9h5.7l-9.9 22c-.2.5-.2.9-.2 1.3 0 .3 0 .6.1 1h-5c-1.6 0-2.4-.6-2.4-1.8 0-.4.1-.8.3-1.2l11.5-25.2-7.8 1.5-11.2 24.4c-.1.4-.1.7-.1 1 0 1.4.6 2.6 2 3.4 1.1.7 2.4 1 3.9 1h14.5 20l1.4-3.2h-17.7c-1.6 0-2.5-.6-2.5-1.8 0-.3.1-.7.3-1.2l9.7-21.4h20.9l-5.6 12.4c-.2.4-.2.8-.2 1.3 0 1.3.7 2.3 2.2 3 1.2.6 2.5.9 3.9.9h36l9.3-20.5h-7zm-86.4 3.9c0-1.3-.7-2.3-2.2-3-1.1-.6-2.4-.9-3.9-.9h-18.3l3.5-7.7-7.8 1.5-12.2 26.7h27.1c3.5 0 6.7-.4 7.9-2.9l5.7-12.4c.1-.5.2-.9.2-1.3zm-7.6 2-4.4 9.5c-.7 1.1-1.9 1.6-3.6 1.6h-16.7l6.4-14.1h16c1.6 0 2.5.6 2.5 1.8 0 .5-.1.9-.2 1.2z"/><path d="m48.3 25.2c0-12.6-10.3-22.9-22.9-22.9-12.7 0-23 10.3-23 22.9 0 12.7 10.3 22.9 22.9 22.9 3.1 0 6-.6 8.6-1.7-2.7-.3-4.8-2.6-4.8-5.4 0-3 2.4-5.5 5.5-5.5 3 0 5.5 2.4 5.5 5.5 0 .7-.1 1.4-.4 2.1 5.2-4.2 8.6-10.6 8.6-17.9z" fill="#d80212"/></svg>