<svg height="240" viewBox="0 0 526 240" width="526" xmlns="http://www.w3.org/2000/svg"><g fill="#f1420d" fill-rule="evenodd" transform="translate(.159094 .504556)"><path d="m485.717606 173.153044c12.799 14.109 23.529 29.553 32.806 46.172-2.948.102-5.897.204-8.845.307 5.311-20.625 3.126-40.719 6.09-61.383.398-2.777 4.569-3.92 5.718-.976 7.908 20.262 2.77 45.521-2.834 65.781-1.191 4.308-7.079 3.635-8.844.306-8.542-16.097-18.583-31.147-29.781-45.51-2.938-3.768 2.499-8.215 5.69-4.697"/><path d="m2.9226064 202.516944c43.206 35.922 109.0769996 40.454 153.8819996 4.542 43.494-34.861 16.056-109.8390001 30.272-157.0610001 29.351-97.503 175.591-35.638 185.388 43.135 4.2 33.7730001-26.567 65.4120001-60.188 54.1770001-14.907-4.982-22.442-20.388-22.842-34.939-.478-17.3530001 17.748-29.3330001 31.155-35.9040001 39.439-19.331 90.876-6.848 125.957 15.499 38.301 24.3980001 64.575 73.8390001 72.757 117.4070001 1.231 6.552-8.661 8.185-10.116 1.774-18.739-82.536-94.573-159.3530001-184.96-126.8230001-13.261 4.772-24.039 14.449-26.67 28.8240001-4.329 23.64 25.89 31.217 41.573 25.449 32.459-11.939 25.485-54.1580001 10.716-76.3500001-24.594-36.956-78.333-61.562-120.663-44.234-73.489 30.084-9.351 144.1080001-62.137 191.9450001-46.671 42.294-120.5169996 34.926-166.3479996-4.355-1.84-1.578.325-4.665 2.224-3.086"/><path d="m352.913497 67.3483086 4.280274 9.7832031 11.382161-.4306641-4.282878-9.8932291z"/><path d="m509.046472 220.396811 1.322266-8.926269 8.063477 1.615722v7.310547z"/></g></svg>