<svg height="866" viewBox="0 0 4075 866" width="4075" xmlns="http://www.w3.org/2000/svg"><g fill="none" fill-rule="evenodd" transform="translate(2.0789 .000361)"><g fill="#f1420d"><path d="m3041.3693 2.55943896c-44.985 0-87.785 26.53500004-106.247 70.54400004-24.538 58.5 3.089 126.055 61.589 150.596 28.334 11.883 59.611 12.027 88.053.397 28.446-11.633 50.656-33.645 62.545-61.984l1.15.483-1.15-.483c24.538-58.499-3.09-126.057-61.589-150.597-14.49-6.07900004-29.541-8.95600004-44.351-8.95600004m-.158 232.65700004c-15.415 0-30.824-3.072-45.466-9.216-28.953-12.144-51.443-34.837-63.329-63.898-11.884-29.06-11.74-61.011.404-89.964 12.145-28.954 34.84-51.444 63.901-63.33000004 29.061-11.884 61.016-11.737 89.964.405 59.768 25.07200004 87.997 94.09500004 62.925 153.86500004-12.145 28.953-34.839 51.443-63.9 63.329-14.363 5.874-29.436 8.809-44.499 8.809"/><path d="m2967.3505 162.751339-.951-2.311c3.614-1.483 7.222-3.014 10.833-4.543 7.539-3.199 15.336-6.502 23.112-9.345l.858 2.345c-7.717 2.821-15.485 6.113-22.995 9.297-3.62 1.536-7.236 3.07-10.857 4.557"/><path d="m3060.7141 201.767339-8.47-34.376 2.423-.595 8.47 34.376z"/><path d="m3058.0124 76.753839-2.263-1.058 18.523-39.555 2.263 1.058z"/><path d="m3001.8608 92.343639c-4.813-5.9-8.236-10.95-11.547-15.834-3.28-4.837-6.671-9.84-11.413-15.65l1.935-1.58c4.811 5.898 8.234 10.947 11.543 15.828 3.282 4.84 6.673 9.843 11.418 15.656z"/><path d="m3088.1601 124.226639h36.505v-2.497h-36.505z"/><path d="m3125.9431 123.150239c1.833 11.613 5.301 27.578 9.092 38.182 5.22-2.538 11.06-5.693 16.153-9.958 5.252-17.033 6.442-35.317 3.45-52.93-4.44-4.838-9.753-8.71-14.541-11.901-5.189 10.004-10.775 25.352-14.154 36.607zm7.702 41.615-.478-1.273c-4.064-10.811-7.819-27.997-9.735-40.235l-.044-.278.08-.273c3.548-11.862 9.582-28.383 15.068-38.555l.646-1.197 1.139.746c5.293 3.472 11.382 7.773 16.412 13.337l.241.268.061.356c3.16 18.23 1.924 37.183-3.57 54.803l-.107.347-.276.234c-5.781 4.913-12.449 8.385-18.208 11.135z"/><path d="m3075.7795 35.445939c11.606 1.914 27.891 3.635 39.099 3.387-.412-3.126-1-6.947-1.936-10.872-8.27-6.705-17.394-12.223-27.125-16.402-9.536-4.09100004-19.608-6.87800004-29.946-8.28000004-4.055 2.414-7.712 5.13-10.384 7.21200004 7.853 8.063 20.666 18.196 30.292 24.955m36.792 5.908c-11.337 0-26.53-1.67-37.482-3.492l-.512-.209c-10.15-7.105-23.936-18.036-31.855-26.438l-.932-.99 1.066-.84300004c2.85-2.256 7.205-5.589 12.12-8.473l.369-.219.426.056c10.714 1.414 21.154 4.281 31.031 8.521 10.072 4.32300004 19.508 10.05300004 28.044 17.02300004l.325.266.097.407c1.168 4.782 1.824 9.414 2.263 12.918l.168 1.351-1.358.053c-1.197.047-2.458.069-3.77.069"/><path d="m2941.1106 60.942139c.466 6.288 2.094 12.408 3.738 17.709 10.326-4.477 24.348-12.855 34.083-19.455 5.908-10.162 13.298-24.728 17.056-35.346-5.357-1.263-11.523-2.46-17.765-2.514-15.3 9.992-28.12 23.675-37.112 39.606zm2.18 21.071-.412-1.297c-1.851-5.835-3.806-12.769-4.287-19.976l-.024-.371.18-.322c9.261-16.531 22.549-30.714 38.426-41.01l.312-.2h.371c7.154.01 14.151 1.475 20.054 2.904l1.322.321-.434 1.29c-3.675 10.953-11.613 26.65-17.853 37.346l-.375.402c-10.248 6.969-25.36 15.973-36.024 20.391z"/><path d="m2960.7016 199.782739c4.613.653 9.258.829 13.644.751-1.246-11.187-5.135-27.054-8.58-38.299-7.98-8.636-19.735-19.981-28.778-26.689-2.36 4.028-4.73 8.366-6.544 13.028 5.445 19.439 15.899 37.131 30.258 51.209m12.983 3.25c-4.42 0-9.082-.146-13.746-.839l-.4-.058-.288-.281c-14.924-14.529-25.757-32.859-31.326-53.013l-.107-.393.146-.383c2.075-5.447 4.867-10.416 7.576-14.975l.695-1.17 1.104.792c9.387 6.727 22.061 18.93 30.453 28.037l.276.478c3.647 11.842 7.814 28.936 8.904 40.43l.127 1.353s-2.724.022-3.414.022"/><path d="m3038.7238 232.513039c20.181.344 40.052-4.559 57.741-14.298 2.058-4.571 3.492-9.296 4.706-13.795-11.118-1.751-27.449-2.187-39.206-1.831-10.436 5.42-24.48 13.764-33.335 20.715 3.065 3.14 6.393 6.368 10.094 9.209m2.163 2.516c-.876 0-1.746-.01-2.624-.029l-.402-.01-.322-.244c-4.357-3.294-8.18-7.085-11.659-10.691l-.947-.98 1.056-.859c8.965-7.275 24.08-16.279 35.081-21.975l.534-.139c12.386-.388 29.973.098 41.342 2.082l1.339.232-.347 1.316c-1.35 5.118-2.938 10.587-5.373 15.895l-.171.373-.356.2c-17.516 9.724-37.221 14.829-57.151 14.829"/><path d="m3001.8754 146.929939c8.5 4.823 16.531 7.773 25.021 10.889 8.516 3.128 17.287 6.349 26.152 7.912 11.969-11.247 23.643-28 33.698-42.966-6.885-15.592-20.061-33.767-30.35-45.216-15.251 2.065-37.059 7.395-52.405 14.826-2.016 17.909-3.959 38.229-2.116 54.555zm51.973 21.471-.608-.103c-9.301-1.56-18.386-4.896-27.171-8.124-8.809-3.233-17.096-6.276-25.984-11.391l-.543-.312-.073-.622c-2.022-16.904.034-37.994 2.118-56.437l.078-.675.61-.302c15.846-7.822 38.762-13.393 54.445-15.449l.646-.083.439.483c10.628 11.718 24.489 30.799 31.506 47.011l.271.624-.381.566c-10.347 15.412-22.429 32.825-34.905 44.394z"/></g><path d="m4070 452.777939c-229.455-297.334-559.215-410.446-1096.558-79.004-739.725 456.275-1926.293 489.243-1948.619 180.198-24.011-332.387 625.115 682.650001-1024.823 154.245" stroke="#f1420d" stroke-dasharray="12.473 24.945" stroke-linecap="round" stroke-width="4.158"/></g></svg>