<svg height="549" viewBox="0 0 1125 549" width="1125" xmlns="http://www.w3.org/2000/svg" xmlns:xlink="http://www.w3.org/1999/xlink"><mask id="a" fill="#fff"><path d="m0 0h1125v548.186h-1125z" fill="#fff" fill-rule="evenodd"/></mask><g fill="none" fill-rule="evenodd" transform="translate(0 .1768)"><path d="m1135.2048 0c-60.544 299.643-166.534 459.707-558.589 344.158-511.673-150.897-839.153-40.33-797.86 154.87 33.36 157.847 262.809-244.45-519.634 49.158" mask="url(#a)" stroke="#f1420d" stroke-dasharray="6.6 13.2" stroke-linecap="round" stroke-width="2.2"/><g fill="#f1420d" transform="translate(727.592632 132.987494)"><path d="m111.994368 2.43400589c-42.781 0-83.485 25.23500001-101.043 67.08900001-23.336 55.6340001 2.938 119.8810001 58.572 143.2190001 26.947 11.302 56.692 11.438 83.741.378 27.053-11.063 48.174-31.997 59.481-58.948l1.094.459-1.094-.459c23.336-55.6340001-2.938-119.8830001-58.573-143.2210001-13.78-5.78100001-28.094-8.51700001-42.178-8.51700001m-.151 221.26200011c-14.659 0-29.314-2.922-43.238-8.765-27.535-11.55-48.924-33.131-60.22800005-60.768-11.301-27.638-11.164-58.0230001.385-85.5580001 11.55000005-27.536 33.13300005-48.924 60.77100005-60.22800001 27.637-11.302 58.027-11.162 85.558.385 56.84 23.84400001 83.687 89.48600001 59.843 146.32800011-11.55 27.536-33.133 48.924-60.771 60.228-13.66 5.586-27.994 8.378-42.32 8.378"/><path d="m41.601168 154.779506-.904-2.198c3.436-1.41 6.868-2.866 10.302-4.32 7.17-3.042 14.585-6.184 21.98-8.888l.816 2.231c-7.339 2.683-14.727 5.813-21.868 8.841-3.444 1.461-6.883 2.92-10.326 4.334"/><path d="m130.391668 191.884706-8.055-32.692 2.304-.566 8.056 32.692z"/><path d="m127.822368 72.9941059-2.152-1.006 17.616-37.618 2.152 1.007z"/><path d="m74.421068 87.8204059c-4.577-5.611-7.833-10.414-10.982-15.058-3.118-4.601-6.344-9.359-10.854-14.884l1.841-1.503c4.575 5.609 7.831 10.411 10.977 15.054 3.121 4.602 6.347 9.36 10.859 14.888z"/><path d="m156.493368 118.141706h34.717v-2.374h-34.717z"/><path d="m192.425668 117.118206c1.744 11.044 5.041 26.228 8.647 36.312 4.964-2.414 10.518-5.414 15.362-9.47 4.994-16.199 6.126-33.587 3.281-50.3380001-4.223-4.601-9.275-8.283-13.83-11.318-4.934 9.514-10.246 24.1110001-13.46 34.8140001zm7.325 39.577-.454-1.211c-3.866-10.281-7.437-26.626-9.259-38.264l-.042-.264.076-.26c3.374-11.281 9.113-26.9930001 14.33-36.6670001l.615-1.138 1.083.709c5.034 3.302 10.824 7.393 15.607 12.684l.23.255.058.339c3.005 17.3370001 1.829 35.3610001-3.395 52.1190001l-.102.329-.262.222c-5.498 4.673-11.839 7.975-17.316 10.59z"/><path d="m144.719268 33.7096059c11.037 1.82 26.524 3.457 37.184 3.221-.392-2.973-.951-6.606-1.841-10.34-7.866-6.376-16.542-11.624-25.797-15.598-9.068-3.89100001-18.647-6.54100001-28.479-7.87500001-3.856 2.296-7.334 4.879-9.875 6.859 7.468 7.66900001 19.654 17.30500001 28.808 23.73300001m34.99 5.618c-10.782 0-25.23-1.588-35.646-3.32l-.487-.199c-9.653-6.757-22.763-17.152-30.295-25.143l-.886-.94100001 1.014-.803c2.71-2.145 6.852-5.314 11.526-8.057l.35-.209.406.053c10.189 1.345 20.118 4.072 29.511 8.104 9.579 4.11200001 18.553 9.56100001 26.671 16.19000001l.308.253.093.387c1.111 4.547 1.734 8.953 2.152 12.285l.16 1.284-1.292.051c-1.138.045-2.337.065-3.585.065"/><path d="m16.646468 57.9570059c.443 5.98 1.992 11.8 3.555 16.841 9.82-4.257 23.155-12.224 32.414-18.501 5.618-9.665 12.646-23.517 16.22-33.616-5.095-1.201-10.959-2.339-16.895-2.39-14.55 9.502-26.742 22.515-35.294 37.666zm2.073 20.039-.392-1.234c-1.76-5.549-3.619-12.143-4.076-18.998l-.024-.352.172-.306c8.807-15.721 21.444-29.21 36.544-39.002l.297-.19h.352c6.804.009 13.458 1.403 19.072 2.762l1.257.306-.413 1.226c-3.494 10.416-11.044 25.345-16.978 35.517l-.357.383c-9.746 6.627-24.118 15.19-34.26 19.392z"/><path d="m35.277868 189.997106c4.387.621 8.804.788 12.976.714-1.185-10.638-4.883-25.729-8.16-36.423-7.589-8.213-18.768-19.002-27.368-25.381-2.245 3.83-4.49900005 7.955-6.22400005 12.389 5.17800005 18.487 15.12100005 35.312 28.77600005 48.701m12.347 3.091c-4.203 0-8.637-.139-13.073-.798l-.38-.055-.274-.267c-14.193-13.818-24.49500005-31.25-29.79100005-50.417l-.102-.373.139-.364c1.973-5.181 4.628-9.906 7.20400005-14.242l.661-1.113 1.051.753c8.927 6.398 20.98 18.003 28.961 26.664l.262.454c3.469 11.263 7.432 27.519 8.468 38.45l.121 1.287s-2.59.021-3.247.021"/><path d="m109.478568 221.124406c19.192.327 38.09-4.336 54.913-13.597 1.957-4.348 3.321-8.842 4.475-13.12-10.573-1.665-26.104-2.08-37.286-1.741-9.924 5.154-23.28 13.089-31.702 19.7 2.915 2.987 6.08 6.057 9.6 8.758m2.057 2.393c-.833 0-1.661-.009-2.495-.028l-.383-.009-.306-.232c-4.144-3.133-7.779-6.739-11.088-10.168l-.9-.932 1.004-.816c8.526-6.919 22.9-15.483 33.363-20.899l.507-.132c11.78-.369 28.505.092 39.317 1.98l1.273.22-.329 1.252c-1.284 4.867-2.794 10.068-5.11 15.116l-.163.355-.338.19c-16.658 9.247-35.399 14.103-54.352 14.103"/><path d="m74.434868 139.733006c8.083 4.587 15.721 7.392 23.795 10.356 8.1 2.975 16.44 6.038 24.871 7.524 11.383-10.696 22.486-26.629 32.048-40.861-6.548-14.829-19.079-32.1130001-28.864-43.0020001-14.504 1.964-35.243 7.033-49.837 14.101-1.918 17.0310001-3.766 36.3560001-2.013 51.8820001zm49.427 20.419-.577-.097c-8.847-1.484-17.486-4.656-25.841-7.726-8.377-3.075-16.259-5.969-24.711-10.834l-.517-.296-.07-.592c-1.922-16.076.033-36.133 2.015-53.6720001l.075-.643.579-.287c15.07-7.439 36.864-12.737 51.779-14.692l.614-.079.417.459c10.108 11.144 23.29 29.2910001 29.964 44.7090001l.257.593-.362.538c-9.841 14.657-21.33 31.218-33.195 42.22z"/></g></g></svg>