<svg height="541" viewBox="0 0 332 541" width="332" xmlns="http://www.w3.org/2000/svg"><g fill="#f1420d" fill-rule="evenodd" transform="translate(.458489 .531285)"><path d="m128.943411 20.8067146c-.846.143-1.693.38-2.537.72-7.743 3.121-15.514 6.58-18.029 15.331-.1.34-.25.613-.43.835-3.347 11.271 1.287 23.921 5.48 34.437 4.146 10.401 8.21 20.823 11.908 31.3940004 7.377 21.079 13.858 42.372 21.83 63.243 6.17 16.152 12.423 32.29 17.701 48.763 2.139 6.674 12.497 25.689 6.268 31.768-2.329 2.268-4.267 3.604-6.138 3.92-2.434.413-4.751-.9-7.661-4.133-3.809-4.234-6.139-9.816-10.326-13.703-2.191-2.036-4.961-3.813-7.593-5.213-5.246-2.795-11.119-3.984-16.495-3.074-5.28.894-10.079 3.813-13.34 9.227-6.323 10.515-5.448 25.265-1.125 36.321.351.897.854 1.746 1.215 2.645.64 1.6 1.776 3.6 1.3 5.372-.297 1.111-1.053 1.773-1.918 1.92-.797.135-1.685-.172-2.394-.973-1.066-1.207-2.054-2.516-3.113-3.742-4.4559998-5.167-8.0089998-11.359-13.8349998-15.161-4.728-3.087-10.049-3.998-15.094-3.144-7.415 1.255-14.244 6.327-17.744 13.921-4.393 9.526-3.487 18.155-.965 28.248 1.286 5.155 2.9 9.749 3.743 14.991.312 1.954-.23 5.588-1.771 7.312-.629.703-1.262 1.06-1.894 1.167-2.496.423-4.918-3.094-6.449-4.685-2.561-2.661-5.583-5.084-9.215-6.04-2.648-.696-6.317-.959-9.745-.379-3.404.577-6.567 1.982-8.259 4.621-9.548 14.913-1.258 32.017 4.243 46.976 2.456 6.677 5.111 13.325 7.051 20.18 4.629 16.366 11.158 32.852 17.819 48.498 6.334 14.864 12.549 29.865 19.407 44.492 3.607 7.687 7.305 15.347 11.192 22.9 3.333 6.473 6.376 13.718 10.463 19.802.645.269 1.171.824 1.324 1.726-.378-2.233 14.2579998-3.805 16.2229998-4.51 4.533-1.626 9.395-2.567 13.992-4.019 7.468-2.359 15.559-4.019 23.2-5.821 18.849-4.446 37.878-9.363 56.341-15.198 18.577-5.867 37.096-11.409 55.077-18.974 8.623-3.624 16.797-8.033 25.321-11.85 4.431-1.982 8.969-3.739 13.284-5.982 4.212-2.193 12.411-4.985 13.551-10.326.09-.416.265-.761.489-1.045-1.212-3.318-3.221-6.502-4.339-9.808-1.406-4.146-2.856-8.188-4.599-12.202-3.549-8.181-6.481-16.571-9.41-24.985-6.382-18.34-12.965-37.059-21.074-54.718-7.696-16.76-12.131-34.537-18.666-51.707-6.688-17.57-13.592-35.024-20.052-52.685-13.133-35.91-26.278-71.664-41.652-106.671-7.748-17.644-15.242-35.3980004-22.407-53.2870004-3.337-8.33-7.41-16.154-11.419-24.168-2.666-5.329-4.817-11.492-7.783-16.825-.408-.215-.761-.587-.98-1.169-.184-.494-.395-.99-.623-1.484-.209-.318-.404-.652-.623-.957-.245-.347-.378-.703-.434-1.053-3.77-6.49-10.968-12.279-18.291-11.039m1.507 8.902c2.395-.406 6.074 2.187 8.496 5.891.337.877.784 1.708 1.335 2.485l.035.055.138.353c.514 1.377 1.274 2.62 2.231 3.674 1.202 2.33 2.305 4.891 3.46 7.578 1.085 2.516 2.204 5.119 3.459 7.629.553 1.106 1.109 2.209 1.661 3.31 3.455 6.863 6.714 13.346 9.45 20.176 6.869 17.146 14.446 35.1660004 22.522 53.5590004 15.674 35.694 29.364 73.121 41.44 106.141 4.324 11.827 8.912 23.722 13.348 35.226 2.253 5.853 4.512 11.705 6.745 17.571 2.473 6.501 4.706 13.3 6.866 19.875 3.504 10.668 7.125 21.7 12.032 32.387 7.605 16.562 13.646 33.498 20.753 53.919 2.771 7.959 5.909 16.978 9.655 25.612 1.722 3.965 3.153 8.041 4.329 11.503.771 2.279 1.789 4.363 2.687 6.198l.009.017c-1.488.959-3.808 2.044-5.106 2.65-1.023.48-1.988.93-2.91 1.408-2.635 1.373-5.438 2.574-8.41 3.843-1.467.629-2.935 1.257-4.395 1.911-3.809 1.705-7.552 3.525-11.171 5.286-4.777 2.323-9.286 4.515-13.96 6.48-15.377 6.471-30.947 11.356-47.428 16.528-2.288.719-4.577 1.437-6.868 2.16-16.022 5.064-33.722 9.836-55.692 15.02-1.705.402-3.43.797-5.168 1.192-6.168 1.41-12.545 2.868-18.681 4.806-1.757.556-3.615 1.041-5.581 1.557-2.737.716-5.565 1.455-8.417 2.46-.569.121-1.931.352-2.945.527-2.147.365-4.7129998.801-7.0959998 1.334-1.477-2.689-2.873-5.565-4.239-8.38-.96-1.984-1.954-4.032-2.978-6.02-3.418-6.645-6.928-13.828-11.044-22.6-5.56-11.859-10.806-24.233-15.876-36.199-1.133-2.67-2.263-5.337-3.398-7.998-5.582-13.109-12.608-30.345-17.438-47.419-1.633-5.772-3.711-11.315-5.716-16.676-.519-1.387-1.037-2.774-1.547-4.162-.584-1.588-1.201-3.2-1.821-4.831-5.648-14.801-8.936-25.186-3.384-34.02.237-.162.945-.508 2.252-.729 2.165-.366 4.543-.159 5.937.208 1.403.369 3.086 1.569 5.011 3.572.192.197.397.443.625.705 2.211 2.534 6.81 7.808 13.836 6.619 1.883-.319 4.644-1.281 7.118-4.053 3.684-4.12 4.632-10.539 3.953-14.758-.642-3.992-1.634-7.527-2.598-10.946-.461-1.644-.898-3.197-1.299-4.803-2.198-8.789-2.835-15.252.405-22.279 2.136-4.636 6.373-8.007 11.052-8.799 2.135-.362 5.365-.342 8.653 1.803 2.836 1.851 5.277 5.031 7.86 8.399 1.279 1.669 2.606 3.395 4.078 5.103.432.499.847 1.015 1.266 1.53.597.736 1.215 1.497 1.91 2.283 2.7439998 3.11 6.7319998 4.568 10.6689998 3.901 4.426-.749 7.923-3.996 9.133-8.479 1.211-4.511-.471-8.369-1.371-10.442-.096-.215-.188-.424-.27-.63-.306-.76-.623-1.405-.878-1.924-.111-.227-.265-.539-.309-.65-3.259-8.334-4.381-20.342.454-28.379 1.701-2.829 4.027-4.458 7.109-4.98 3.242-.549 7.159.232 10.748 2.142 2.353 1.251 4.321 2.585 5.691 3.859 1.519 1.41 2.929 3.572 4.424 5.86 1.487 2.283 3.178 4.869 5.334 7.265 1.869 2.079 7.562 8.405 15.879 6.997 4.725-.8 8.325-3.817 10.935-6.361 9.286-9.06 2.776-24.612-1.979-35.966-.852-2.036-1.654-3.959-1.995-5.018-4.956-15.472-10.814-30.784-16.475-45.591l-1.392-3.638c-4.935-12.921-9.397-26.325-13.711-39.287-2.587-7.772-5.26-15.809-8.028-23.718-3.898-11.1340004-8.092-21.8420004-12.045-31.7550004-3.822-9.585-7.37-19.586-5.455-27.615.278-.577.51-1.184.693-1.817 1.203-4.183 4.899-6.297 12.727-9.453.227-.092.447-.155.671-.192"/><path d="m291.864111 361.867015c3.785 10.3 7.293 20.696 10.854 31.077 6.71 19.565 12.402 39.491 19.338 58.938l-.318.337c-5.861 7.603-15.221 11.271-23.409 15.826-9.563 5.318-20.066 9.503-30.231 13.539-19.861 7.896-40.135 13.972-60.699 19.731-10.148 2.835-19.897 6.757-30.134 9.342-10.704 2.701-21.438 5.254-32.052 8.297-9.601 2.748-19.374 5.693-29.165 7.616-3.543.7-7.066 1.212-10.575 2.096-.587.147-15.7419998 3.015-18.6779998 1.474.347-.525.449-1.208.106-1.986-6.418-14.522-14.416-28.597-21.558-42.794-7.992-15.885-15.347-31.941-22.52-48.204-12.826-29.064-19.309-60.426-29.678-90.311-.033-.18-.084-.367-.167-.558-.063-.147-.119-.295-.179-.44-.269-.771-.532-1.541-.804-2.309-.087-.234-.199-.433-.327-.61-3.25399996-9.215-3.42099996-18.31 1.176-27.545 4.656-9.354 16.514-15.521 26.695-11.334 2.795 1.152 7.478 6.923 8.642.606.114-.599.189-1.199.228-1.805-5.256-14.236-8.176-27.016 2.343-40.307 7.484-9.453 23.35-18.218 35.384-12.278 2.427 1.198 9.207 7.834 10.872 3.153.27-.752.425-1.529.558-2.309-1.152-4.549-.064-10.61.64-14.483 1.31-7.221 5.4489998-12.976 10.9339998-17.618 4.879-4.129 12.705-5.769 18.862-6.446 5.038-.554 9.922.551 13.911 3.746 1.946 1.563 3.602 3.479 5.052 5.504 1.48 2.071 4.362 6.164 6.394 1.823.107-.22.191-.452.288-.68l-.17-.277c.16-.435.19-.931.047-1.478-7.867-29.081-15.431-58.386-24.729-87.089-9.256-28.549-21.168-56.2610004-30.4999998-84.6980004-.146-.451-.385-.78-.669-1.027-1.32-4.551-1.76-8.645-.667-13.814 1.45-6.845 7.8529998-13.834 13.2729998-17.875 10.255-7.64299995 31.208-12.76399995 38.879.799.211.368.469.624.748.801 3.738 3.673 6.03 10.726 8.178 15.254 2.847 6.005 5.458 12.115 8.31 18.115 6.094 12.851 12.658 25.465 18.191 38.58 11.371 26.9540004 22.555 53.9400004 32.946 81.2930004 20.058 52.793 43.935 103.926 63.284 156.987-.079.499-.013 1.042.269 1.586 5.193 9.843 6.998 21.325 10.827 31.755m-4.934-30.277c-.027-.14-.056-.277-.109-.42-19.962-55.564-44.985-108.991-65.951-164.169-10.757-28.32-22.258-56.378-34.316-84.1700004-5.577-12.854-12.248-25.219-18.129-37.936-2.759-5.972-5.399-11.988-8.263-17.91-2.05-4.23-3.776-9.001-7.182-12.314-9.085-15.90999995-29.958-9.98099995-42.946-3.297-7.042 3.625-12.1609998 10.378-15.8709998 17.214-4.572 8.429-2.821 16.761.2 25.196.166.458.418.79.721 1.036 9.1089998 27.1 20.2299998 53.6810004 29.2109998 80.9020004 8.491 25.744 15.347 52.081 22.355 78.248-3.408-3.3-7.484-5.427-13.178-6.173-8.932-1.164-19.873 2.125-27.082 7.301-6.28 4.511-10.1139998 11.211-12.3469998 18.444-1.208 3.911-2.102 9.442-1.745 14.513-4.47-2.833-9.788-4.359-15.116-4.267-10.65.187-18.129 4.941-26.098 11.68-6.777 5.731-10.954 13.838-12.415 22.499-1.316 7.819.825 14.989 3.499 22.079-9.708-4.681-20.938-1.196-29.133 7.115-10.72899996 10.879-10.19099996 27.318-4.71199996 40.345 10.64799996 30.208 18.27399996 61.332 29.99999996 91.26 12.132 30.97 29.894 59.3 43.434 89.564-.34 3.396 3.378 6.967 6.697 7.324 10.553 1.141 22.4339998-3.34 32.7669998-5.232 10.529-1.924 21.098-5.754 31.424-8.616 13.456-3.733 27.214-6.371 40.474-10.777 24.584-8.162 49.662-14.364 73.795-23.844 10.632-4.169 21.587-8.437 31.636-13.867 9.361-5.057 20.196-9.404 26.85-18.028.432-.559.559-1.151.496-1.705.807-.528 1.309-1.493.885-2.675-7.046-19.651-12.746-39.809-19.566-59.579-3.892-11.271-7.727-22.555-11.834-33.75-3.156-8.598-4.886-17.607-8.451-25.991"/><path d="m240.896911 389.203815c-5.474-13.828-10.788-27.72-15.68-41.768-10.144-29.097-15.868-59.385-27.731-87.96-.676-1.627-2.832-2.249-4.068-.794-3.855 4.546-5.581 9.945-7.197 15.587-2.553 8.922-6.542 17.406-10.106 25.964-3.227 7.749-6.83 14.956-10.671 22.4-2.196 4.263-5.221 9.406-6.584 14.512.68.903 1.633 1.65 2.795 2.175.355-.044.71-.087 1.066-.129.175-.082.35-.167.525-.272 1.357-6.538 6.417-14.171 9.162-19.239 3.496-6.462 6.232-13.105 9.06-19.899 2.503-6.009 5.449-12.011 7.507-18.186 1.819-5.469 2.878-11.309 5.699-16.315 10.732 27.303 16.512 55.999 26.018 83.696 4.83 14.069 10.225 27.937 15.684 41.77 5.226 13.245 11.718 25.99 16.456 39.418 1.025 2.905 5.549 1.366 4.521-1.542-4.734-13.425-11.218-26.177-16.456-39.418"/><path d="m256.186011 436.133515c-3.352.566-6.483-1.27-7.611-4.467-2.693-7.631-6.054-15.243-9.306-22.602-2.391-5.419-4.866-11.022-7.092-16.662-5.254-13.314-10.795-27.522-15.754-41.961-4.115-11.991-7.579-24.307-10.93-36.217-3.33-11.845-6.746-23.993-10.825-35.859-.438 1.53-.891 3.099-1.41 4.655-1.473 4.418-3.362 8.709-5.186 12.859-.83 1.881-1.654 3.758-2.437 5.636l-.291.701c-2.696 6.474-5.48 13.169-8.964 19.61-.608 1.121-1.322 2.362-2.086 3.686-2.543 4.41-5.712 9.898-6.628 14.323l-.402 1.931-1.689 1.019c-.315.188-.626.345-.938.493l-.655.306-3.031.373-1.162-.526c-1.828-.831-3.397-2.063-4.531-3.566l-1.326-1.758.567-2.126c1.248-4.685 3.619-9.147 5.706-13.083.426-.803.84-1.582 1.227-2.333 4.128-7.998 7.495-14.811 10.516-22.068.792-1.898 1.601-3.792 2.412-5.688 2.758-6.44 5.609-13.098 7.521-19.783 1.759-6.141 3.702-12.083 8.096-17.264 1.044-1.232 2.479-2.055 4.037-2.318 3.168-.537 6.382 1.271 7.642 4.299 7.007 16.885 11.952 34.522 16.733 51.58 3.391 12.093 6.896 24.598 11.09 36.626 4.236 12.165 9.199 25.381 15.616 41.594 2.146 5.428 4.565 10.902 6.903 16.197 3.337 7.561 6.79 15.38 9.612 23.382.688 1.943.509 3.959-.5 5.674-1.039 1.766-2.833 2.983-4.924 3.337"/><path d="m125.911311 426.151915c-3.569 1.559-7.123 3.151-10.672 4.749-1.078-5.419-2.089-10.85-2.914-16.315-1.05-6.964-1.821-13.963-2.583-20.962 8.21-4.032 16.556-7.777 25.006-11.288 2.624 12.237 5.421 24.438 7.686 36.733-5.519 2.34-11.033 4.684-16.523 7.083m41.982-17.785c-6.993 2.911-13.985 5.828-20.962 8.773-2.291-12.26-5.089-24.431-7.696-36.643 7.085-2.867 14.227-5.606 21.411-8.224 2.891-1.054.856-5.378-2.02-4.33-6.839 2.492-13.64 5.088-20.388 7.805-1.755-8.447-3.363-16.922-4.571-25.47-.431-3.053-5.14-2.248-4.71.797 1.258 8.902 2.95 17.721 4.789 26.514-8.294 3.425-16.495 7.065-24.56 10.983-.765-6.94-1.576-13.875-2.7-20.771-.496-3.041-5.206-2.244-4.71.797 1.2 7.368 2.082 14.775 2.914 22.188-6.6169998 3.323-13.1459998 6.829-19.5429998 10.594-2.628 1.546-.64 5.895 2.02 4.33 5.929-3.49 11.967-6.77 18.0869998-9.876.723 6.523 1.449 13.047 2.361 19.549.826 5.886 1.912 11.726 3.085 17.551-2.222 1.001-4.444 2.001-6.67 2.993-5.3449998 2.376-6.6049998 3.526-11.8929998 7.001-2.558 1.679.407 5.24 3.065 3.664 5.2279998-3.106 7.7439998-4.954 13.4239998-7.48 1.021-.454 2.04-.917 3.061-1.374 1.601 7.707 3.279 15.401 4.635 23.152.533 3.033 5.244 2.239 4.711-.797-1.43-8.165-3.164-16.266-4.825-24.379 3.905-1.755 7.806-3.511 11.723-5.23 5.106-2.247 10.229-4.442 15.358-6.623 1.321 7.723 2.396 15.49 3.018 23.338.245 3.072 4.952 2.25 4.71-.798-.652-8.227-1.793-16.368-3.205-24.462 7.358-3.106 14.731-6.172 22.101-9.242 2.844-1.183.821-5.513-2.02-4.33"/><path d="m114.575611 396.294015c.699 6.367 1.357 11.929 2.213 17.619.49 3.248 1.068 6.626 1.8 10.539 1.836-.819 3.673-1.633 5.515-2.437 4.397-1.92 8.807-3.805 13.221-5.682-1.538-8.001-3.297-16.063-5.004-23.893-.276-1.276-.555-2.551-.834-3.828-5.82 2.499-11.482 5.071-16.911 7.682m5.257 70.923c-3.803.644-7.297-1.793-7.955-5.549-1.021-5.824-2.25-11.739-3.453-17.489-2.853 1.375-4.859 2.605-7.454 4.195-1.0489998.643-2.1749998 1.332-3.4649998 2.099-.785.466-1.628.778-2.508.927-3.34.565-6.66-1.308-7.896-4.452-1.142-2.906-.117-6.037 2.554-7.792 1.045-.686 1.929-1.279 2.716-1.81 3.238-2.173 5.192-3.485 9.8279998-5.545 1.126-.502 2.252-1.005 3.378-1.511-1.064-5.481-1.83-9.989-2.43-14.281-.62-4.402-1.159-8.873-1.648-13.139-4.1559998 2.209-8.1899998 4.463-12.0429998 6.73-.746.439-1.536.73-2.348.868-3.134.53-6.121-1.29-7.267-4.427-1.197-3.287.044-6.803 3.016-8.552 5.35-3.147 10.933-6.207 16.994-9.311-.677-5.879-1.482-12.405-2.53-18.855-.614-3.76 1.883-7.212 5.6829998-7.855 1.852-.314 3.757.11 5.225 1.164 1.45 1.037 2.415 2.615 2.712 4.444.812 4.982 1.462 10.001 2.015 14.702 5.018-2.34 10.244-4.655 15.617-6.921-1.831-8.99-3.11-16.245-4.086-23.149-.534-3.785 1.936-7.124 5.75-7.77 1.865-.316 3.778.119 5.246 1.192 1.448 1.06 2.391 2.663 2.654 4.515.853 6.044 1.941 12.339 3.448 19.916 5.034-1.976 10.225-3.939 15.493-5.858.416-.153.845-.266 1.274-.339 3.594-.609 7.024 1.651 7.976 5.258.893 3.374-.845 6.692-4.137 7.892-5.987 2.183-11.941 4.449-17.743 6.756.459 2.129.923 4.257 1.387 6.385 1.511 6.928 3.063 14.045 4.476 21.164 5.278-2.215 10.561-4.419 15.848-6.62.507-.21 1.03-.363 1.56-.453 3.447-.584 6.802 1.586 7.801 5.046.966 3.342-.664 6.738-3.873 8.073l-1.81.752c-5.66 2.359-11.324 4.717-16.978 7.094 1.263 7.703 2.134 14.711 2.659 21.335.291 3.654-2.261 6.879-5.929 7.5-1.916.325-3.853-.14-5.311-1.277-1.442-1.123-2.318-2.797-2.469-4.713-.428-5.394-1.105-11.089-2.052-17.281-3.341 1.431-6.68 2.877-10.007 4.339-2.804 1.232-5.599 2.481-8.39 3.733l.268 1.301c1.324 6.421 2.694 13.061 3.853 19.665.318 1.824-.073 3.632-1.101 5.088-1.043 1.476-2.702 2.503-4.548 2.816"/><path d="m29.9206112 302.721315c-4.775.808-9.629 3.51-13.67 7.609-9.64999996 9.784-8.27299996 24.714-3.766 35.424l.096.251c4.558 12.929 8.619 26.201 12.545 39.034 5.273 17.224 10.723 35.034 17.401 52.082 6.86 17.507 15.741 34.546 24.329 51.023 6.48 12.43 13.18 25.285 19.022 38.343l.491 1.096-.119 1.197c.006.668 1.512 2.26 2.685 2.386 3.039.328 6.578.139 10.819-.579l.003-.001c3.5949998-.608 7.3249998-1.527 10.9319998-2.414 3.219-.792 6.545-1.609 9.721-2.191 6.896-1.261 14.024-3.434 20.917-5.537 3.314-1.01 6.743-2.056 10.112-2.989 5.206-1.445 10.514-2.741 15.642-3.992 8.158-1.993 16.595-4.053 24.616-6.718 9.205-3.057 18.598-5.876 27.683-8.602 15.19-4.559 30.899-9.274 45.886-15.161l.586-.229c10.291-4.036 20.929-8.207 30.553-13.407 1.771-.958 3.595-1.89 5.433-2.829 7.202-3.683 14.644-7.487 19.467-13.333l-.212-1.854.849-.555c-3.66-10.325-7.003-20.887-10.24-31.118-2.799-8.835-5.69-17.973-8.751-26.854l-2.057-5.959c-3.138-9.109-6.383-18.528-9.75-27.707-1.424-3.882-2.566-7.83-3.67-11.647-1.432-4.959-2.786-9.641-4.695-14.135l-.182-.42-.079-.395c-11.008-30.625-23.794-61.162-36.159-90.696-9.996-23.878-20.334-48.569-29.709-73.24-10.25-26.983-21.768-55.237-34.236-83.9770004-3.197-7.367-6.843-14.744-10.37-21.878-2.568-5.202-5.226-10.581-7.714-15.96-.96-2.071-1.901-4.148-2.843-6.224-1.739-3.828-3.536-7.787-5.389-11.614-.412-.853-.813-1.729-1.218-2.611-1.496-3.269-2.912-6.355-5.049-8.433l-.457-.444-.314-.554c-3.785-6.631-10.405-9.04499995-20.234-7.38099995-6.578 1.11299995-12.725 3.80099995-16.724 5.85899995-5.191 2.672-9.89 7.837-13.9709998 15.354-3.529 6.508-2.471 13.112.285 20.969l.53.426.416 1.245c4.3589998 12.966 9.2769998 26.068 14.0309998 38.739 5.165 13.7540004 10.503 27.9770004 15.19 42.1880004 7.693 23.324 14.13 47.428 20.355 70.738l6.292 23.512-11.718-11.345c-2.932-2.838-6.209-4.362-10.625-4.94-2.581-.336-5.442-.244-8.499.273-5.575.944-11.176 3.211-15.364 6.219-4.854 3.487-8.444 8.907-10.6669998 16.108-.97 3.136-1.886 8.162-1.557 12.865l.63 8.915-7.549-4.786c-3.746-2.375-8.228-3.641-12.622-3.566-1.51.026-2.995.162-4.412.402-7.025 1.189-12.617 4.942-18.848 10.212-5.668 4.793-9.53 11.826-10.88 19.804-1.065 6.341.538 12.475 3.272 19.736l3.98 10.559-10.164-4.902c-3.191-1.539-6.652-2.006-10.286-1.391m71.3429998 236.766h-.003c-5.0719998.861878-9.4199998 1.073-13.2919998.655-5.042-.543-10.434-5.267-10.733-10.866-5.641-12.508-12.117-24.934-18.386-36.959-8.699-16.688-17.693-33.946-24.727-51.904-6.805-17.368-12.309-35.346-17.628-52.732-3.889-12.703-7.90799996-25.84-12.38499996-38.551-5.591-13.387-7.016-32.233 5.714-45.139 7.22099996-7.323 16.69499996-11.231 25.44199996-10.451-1.326-4.979-2.038-10.435-1.048-16.323 1.704-10.079 6.656-19.026 13.952-25.196 6.371-5.389 13.59-10.598 23.17-12.22 1.862-.315 3.8-.492 5.763-.528 3.661-.061 7.362.54 10.858 1.737.317-3.01.919-6.048 1.769-8.8 2.815-9.124 7.536-16.115 14.0279998-20.778 5.268-3.783 12.238-6.622 19.122-7.787 3.944-.668 7.705-.777 11.176-.324 1.913.251 3.704.638 5.39 1.171-5.956-22.286-12.14-45.234-19.438-67.355-4.629-14.038-9.937-28.174-15.065-41.8450004-4.676-12.452-9.5039998-25.318-13.8349998-38.135-.414-.547-.745-1.161-.989-1.835-3.069-8.569-5.454-18.687.078-28.887 4.96-9.141 10.9399998-15.559 17.7729998-19.07499995 4.568-2.351 11.63-5.426 19.349-6.733 13.38-2.265 23.484 1.629 29.267 11.26899995 3.066 3.184 4.887 7.158 6.503 10.685.376.822.751 1.639 1.135 2.436 1.902 3.929 3.722 7.937 5.483 11.816.935 2.057 1.867 4.115 2.817 6.167 2.438 5.273 5.069 10.599 7.616 15.749 3.574 7.232 7.27 14.712 10.555 22.285 12.524 28.8670004 24.096 57.2510004 34.396 84.3640004 9.32 24.529 19.627 49.15 29.595 72.96 12.43 29.686 25.283 60.383 36.385 91.285.067.187.122.366.168.543 2.041 4.883 3.5 9.92 4.909 14.797 1.059 3.667 2.155 7.459 3.472 11.042 3.398 9.266 6.659 18.727 9.811 27.878l2.052 5.954c3.103 8.994 6.013 18.185 8.827 27.075 3.386 10.701 6.89 21.767 10.722 32.455.788 2.199.433 4.499-.852 6.261-.237.857-.644 1.672-1.208 2.403-6.033 7.816-14.67 12.233-23.026 16.504-1.774.908-3.536 1.808-5.25 2.734-10.107 5.461-21.004 9.734-31.547 13.868l-.586.23c-15.33 6.021-31.223 10.791-46.59 15.404-9.021 2.707-18.351 5.507-27.431 8.521-8.368 2.781-16.986 4.885-25.32 6.92-5.062 1.236-10.299 2.515-15.37 3.923-3.257.903-6.632 1.932-9.893 2.925-7.139 2.178-14.518 4.427-21.926 5.782-2.907.531-5.956 1.283-9.188 2.076-3.764.928-7.658 1.885-11.581 2.549"/></g></svg>