<svg height="707" viewBox="0 0 1325 707" width="1325" xmlns="http://www.w3.org/2000/svg"><g fill="#f1420d" fill-rule="evenodd" transform="translate(.717511 .950975)"><path d="m1012.60529 641.044725c-2.141.126-3.984-1.497-4.133-3.64l-23.482001-340.72c.016-23.07-18.519-41.642-41.319-41.666l-562.266-.572c-22.658.221-41.367 18.515-41.394 41.318l-24.181 340.939c-.153 2.153-2.036 3.811-4.179 3.631-2.158-.157-3.781-2.03-3.628-4.184l24.17-340.67c.016-26.846 22.149-48.98 49.219-48.86247l562.267.57247c27.119.022 49.158 22.111 49.131 49.234l23.473001 340.448c.15 2.159-1.483 4.02-3.642 4.17z"/><path d="m351.552989 265.904725c-.618.036-1.253-.072-1.855-.35-135.89-62.243-227.846-178.768-228.761-179.939-1.33-1.707-1.026-4.168.677-5.493 1.705-1.357 4.163-1.034 5.497.672.902 1.157 91.746 116.215 225.845 177.644 1.968.896 2.832 3.219 1.929 5.187-.625 1.362-1.932 2.197-3.332 2.279"/><path d="m662.775689 254.726425c-.08.005-.156.007033-.237.007033-2.164-.004033-3.913-1.755033-3.911001-3.922033l.190001-188.918c0-2.153 1.727-4.039 3.918-3.907 2.164.003 3.913 1.754 3.911002 3.922l-.190002 188.918c-.001 2.075-1.628 3.779-3.681 3.9"/><path d="m597.059589 254.658525c-1.645.097-3.237-.859-3.872-2.476-30.548-77.609-45.083-188.778-45.23-189.896-.275-2.143 1.241-4.101 3.385-4.38 2.082-.291 4.106 1.244 4.385 3.388.141 1.102 14.556 111.321 44.744 188.024.792 2.006-.196 4.286-2.206 5.078-.397.153-.806.238-1.206.262"/><path d="m516.977589 254.576725c-1.382.081-2.764-.573-3.551-1.829-65.117-104.016-92.365-189.063-92.633-189.913-.649-2.06.493-4.257 2.553-4.907 2.056-.672 4.261.493 4.914 2.553.264.835 27.252 85.002 91.8 188.109 1.149 1.832.594 4.247-1.237 5.396-.577.363-1.212.554-1.846.591"/><path d="m418.408689 254.478225c-1.022.06-2.065-.277-2.879-1.026-48.977-44.984-148.113-183.796-152.308-189.685-1.256-1.757-.844-4.201.916-5.461 1.757-1.26 4.205-.845 5.458.92 1.022 1.434 102.855 144.032 151.233 188.462 1.591 1.461 1.698 3.936.233 5.531-.716.778-1.672 1.201-2.653 1.259"/><path d="m976.398489 266.537625c-1.568.092-3.101-.768-3.791-2.282-.897-1.969-.031-4.295 1.939-5.192 134.227001-61.149 225.304001-176.035 226.209001-177.191 1.337-1.687 3.797-2 5.495-.667 1.702 1.332 2 3.796.667 5.498-.915 1.165-93.113 117.518-229.126001 179.492-.451.202-.924.314-1.393.342"/><path d="m730.916289 254.797425c-.55.032-1.117-.049-1.667-.27-2.011-.793-2.995-3.071-2.197-5.079 30.349-76.66 44.98-186.839 45.122-187.943.28-2.146 2.232-3.662 4.389-3.375 2.146.28 3.655 2.244 3.376 4.389-.146 1.112-14.908 112.257-45.61 189.81-.577 1.466-1.94 2.381-3.413 2.468"/><path d="m811.001989 254.878825c-.786.046-1.594-.144-2.309-.592-1.83-1.156-2.381-3.567-1.23-5.404 64.801-103.048 91.913-187.092 92.178-187.935.652-2.061 2.857-3.194 4.917-2.541s3.201 2.86 2.545 4.921c-.269.843-27.688 85.848-93.014 189.731-.697 1.105-1.866 1.748-3.087 1.82"/><path d="m909.578389 254.977025c-1.137.067-2.292-.363-3.123-1.264-1.457-1.6-1.35-4.072.246-5.529 48.466-44.346 150.580001-186.733 151.607001-188.165 1.256-1.758 3.694-2.17 5.461-.903 1.759 1.26 2.163 3.703.903 5.462-4.208 5.877-103.618001 144.49-152.684001 189.377-.691.63-1.544.971-2.41 1.022"/><path d="m60.4601893 703.836725c-2.004.118-3.803-1.316-4.098-3.336-.314-2.142 1.162-4.128 3.304-4.445 1.534-.228 154.6429997-23.019 250.7499997-63.239 1.992-.845 4.284.108 5.121 2.096.838 1.996-.104 4.288-2.1 5.125-97.019 40.604-251.0889997 63.535-252.6339997 63.763-.114.015-.228.029-.343.036"/><path d="m93.8200893 597.726425c-8.713.512-17.412.862-26.061 1.033-2.162.036-3.948-1.682-3.98663-3.84-.03837-2.165 1.73863-3.84 3.83963-3.994 118.2359997-2.145 247.7389997-39.87 249.0299997-40.26 2.064-.581 4.254.585 4.859 2.656.608 2.07-.582 4.247-2.656 4.859-1.209.354-113.589 32.998-225.0249997 39.546"/><path d="m271.716589 474.400125c-49.339 2.899-125.796 4.289-196.4759997-7.259-2.135-.35-3.582-2.364-3.232-4.498.346-2.127 2.385-3.533 4.493-3.236 115.0479997 18.815 245.7129997 2.957 247.0289997 2.803 2.145-.394 4.099 1.261 4.367 3.405s-1.256 4.102-3.405 4.367c-.513.06-21.035 2.553-52.776 4.418"/><path d="m331.685089 365.110325c-.122.006473-.245.006473-.367.006473-1.513-.057473-152.133-5.751473-244.9579997-56.524473-1.9-1.037-2.595-3.417-1.557-5.316 1.037-1.891 3.424-2.591 5.312-1.553 91.2109997 49.887 239.9779997 55.515 241.4699997 55.565 2.161.072 3.853 1.888 3.782276 4.044-.073276 2.042-1.686276 3.661-3.682276 3.778"/><path d="m1266.29589 705.044425c-.267.016-.536.009-.81-.037-1.546-.231-155.567-23.464-252.506-64.268-1.991-.833-2.926-3.129-2.09-5.124.841-1.995 3.153-2.919 5.128-2.086 96.024 40.406 249.087 63.504 250.621 63.736 2.137.319 3.613 2.308 3.295 4.448-.278 1.862-1.829 3.225-3.638 3.331"/><path d="m1259.05229 599.948925c-.103.006-.21.004548-.318.003-119.245-2.514-249.696-40.697-250.997-41.08-2.074-.614-3.259-2.796-2.645-4.869.614-2.066 2.793-3.236 4.861-2.645 1.294.384 130.775 38.279 248.95 40.772 2.158.042 3.876 1.833 3.8309 3.995-.0439 2.055-1.6629 3.705-3.6819 3.824"/><path d="m1181.52029 475.760525c-93.426 5.489-178.196-4.963-179.253-5.1-2.145-.265-3.662001-2.228-3.394001-4.374.269-2.145 2.181001-3.689 4.377001-3.389 1.304.16 131.978 16.257 247.025-2.298 2.223-.353 4.147 1.104 4.49 3.236.344 2.14-1.108 4.148-3.24 4.488-23.099 3.731-46.828 6.075-70.005 7.437"/><path d="m1004.12989 365.366625c-5.270001.31-8.270001.417-8.477001.421-2.16.066-3.971-1.627-4.043151-3.791-.066849-2.163 1.531151-4.019 3.790151-4.037 1.501-.065 150.306001-5.392 241.583001-55.079 1.893-1.03 4.27-.335 5.312 1.564 1.031 1.9.331 4.278-1.569 5.308-80.2 43.66-203.385 53.663-236.596 55.614"/><path d="m312.156489 640.335125c-1.641.096-3.232-.852-3.871-2.468-.796-2.006.188-4.286 2.198-5.078 4.742-1.879 476.033-189.786 662.944-372.955 1.538-1.523 4.021-1.5 5.537.058 1.515 1.542 1.488 4.018-.054 5.533-188.045 184.27-660.787 372.76-665.541 374.64-.4.161-.808.246-1.213.27"/><path d="m317.973189 558.331025c-1.607.094-3.169-.81-3.832-2.379-.844-1.988.082-4.286 2.073-5.131 3.18-1.351 320.039-136.902 491.842-302.67 1.564-1.478 4.04-1.447 5.536.104 1.5 1.551 1.459 4.035-.096 5.535-172.858 166.78-491.029 302.883-494.224 304.235-.425.186-.864.28-1.299.306"/><path d="m324.241489 470.004025c-1.568.092-3.105-.775-3.792-2.289-.897-1.97-.026-4.288 1.944-5.185 2.391-1.083 240.131-109.834 337.281-214.377 1.473-1.58 3.95-1.664 5.533-.202 1.584 1.469 1.676 3.945.203 5.533-98.22 105.693-337.374 215.087-339.78 216.178-.451.203-.92.314-1.389.342"/><path d="m331.685089 365.110325c-1.511.089-3.002-.704-3.726-2.14-.975-1.934-.202-4.285 1.725-5.264 1.012-.503 101.76-51.62 184.804-110.237 1.773-1.237 4.207-.821 5.455.944 1.245 1.765.826 4.21-.943 5.455-83.522 58.951-184.769 110.319-185.784 110.83-.491.251-1.012.381-1.531.412"/><path d="m1012.60529 641.044725c-.534.031-1.088-.043-1.621-.249-4.819-1.839-483.858001-185.6-671.549001-370.273-1.541-1.518-1.559-3.99-.046-5.535 1.519-1.529 3.995-1.567 5.539-.042 186.521 183.524 664.040001 366.701 668.843001 368.532 2.021.77 3.035 3.031 2.265 5.052-.567 1.489-1.939 2.427-3.431 2.515"/><path d="m1000.24419 564.765425c-.584001.034-1.187001-.061-1.761001-.31-3.193-1.36-321.093-138.102-493.606-305.239-1.556-1.501-1.594-3.981-.088-5.532 1.494-1.551 3.973-1.597 5.532-.088 171.49 166.14 488.058 302.302 491.232001 303.663 1.992.848 2.915 3.145 2.067 5.132-.603 1.415-1.941 2.29-3.376 2.374"/><path d="m994.153289 476.421825c-.618.036-1.253-.072-1.851-.351-2.404-1.092-241.336-110.964-339.342-216.854-1.468-1.583-1.373-4.063.214-5.535 1.588-1.464 4.068-1.357 5.532.219 96.951 104.75 334.462 213.962 336.846 215.055 1.968.896 2.836 3.219 1.937 5.187-.625 1.362-1.935 2.197-3.336 2.279"/><path d="m986.924789 371.516925c-.668.039-1.357-.089-1.997-.419-1.014-.515-102.163-52.085-185.564-111.192-1.766-1.253-2.181-3.694-.929-5.461 1.248-1.758 3.69-2.169 5.456-.933 82.938 58.79 183.573 110.092 184.579 110.607 1.931.982 2.697 3.334 1.719 5.261-.652 1.287-1.92 2.058-3.264 2.137"/><path d="m491.017889 640.518425c-1.584.093-3.133-.789-3.813-2.327-.871-1.978.027-4.29 2.006-5.165 3.035-1.335 305.744-135.388 504.071-274.36 1.769-1.237 4.203-.814 5.452.959 1.238 1.773.81 4.211-.963 5.456-198.963 139.416-502.363 273.77-505.405 275.113-.437.194-.894.297-1.348.324"/><path d="m654.169189 640.820325c-1.588.093-3.137-.796-3.813-2.334-.872-1.986.031-4.291 2.013-5.158 2.263-.991 227.645-99.963 339.609-164.208 1.89-1.076 4.268-.427 5.347 1.447 1.075 1.875.427 4.264-1.448 5.34-112.334 64.458-338.097 163.598-340.367 164.589-.437.194-.891.298-1.341.324"/><path d="m829.517889 640.857325c-1.603.094-3.165-.81-3.831-2.372-.848-1.987.077-4.285 2.065-5.137 1.255-.534 126.183-53.875 179.277001-81.704 1.909-1.015 4.282-.259 5.282 1.651 1.005 1.917.267 4.281-1.65 5.29-53.368001 27.974-178.577001 81.432-179.836001 81.965-.426.179-.868.281-1.307.307"/><path d="m829.517889 640.857325c-.473.028-.955-.028-1.432-.184-2.56-.822-258.757-84.711-491.841-276.436-1.67-1.373-1.911-3.84-.535-5.514 1.365-1.673 3.836-1.91 5.51-.538 231.945 190.789 486.721 274.217 489.27 275.04 2.057.66 3.187 2.869 2.526 4.922-.512 1.585-1.933 2.618-3.498 2.71"/><path d="m665.754189 640.828725c-.553.033-1.121-.049-1.67-.269-2.066-.821-208.047-82.965-335.775-156.594-1.871-1.085-2.513-3.476-1.436-5.347 1.085-1.871 3.471-2.517 5.35-1.44 127.236 73.352 332.691 155.282 334.75 156.103 2.011.801 2.992 3.079 2.194 5.087-.58 1.459-1.94 2.373-3.413 2.46"/><path d="m492.418489 644.020425c-.634.037-1.284-.078-1.898-.371-1.131-.531-114.013-53.855-174.603-85.764-1.913-1.006-2.645-3.376-1.636-5.289 1.006-1.913 3.371-2.649 5.284-1.635 60.441 31.826 173.165 85.075 174.3 85.614 1.953.919 2.791 3.252 1.868 5.205-.633 1.347-1.93 2.159-3.315 2.24"/><path d="m1223.56769 697.728125c-1.828.107-3.533-1.079-4.012-2.92-65.432-251.047-26.55-553.205-20.379-596.858-350.605001 56.584-998.076001 12.144-1059.818001 7.699 3.661 35.002 23.504 260.534-32.537 587.705-.361 2.127-2.414 3.55-4.518 3.199-2.132-.365-3.5599997-2.388-3.1949997-4.523 60.5779997-353.693 32.2469997-587.81 31.9529997-590.137-.145-1.163.238-2.334 1.049-3.186.812-.852 1.962-1.295 3.132-1.203 6.993.524 703.714 52.287 1067.940001-8.145 1.213-.217 2.501.19 3.395 1.08.895.881 1.306 2.144 1.115 3.388-.516 3.278-50.491 330.697 19.436 599.004.548 2.09-.708 4.231-2.798 4.775-.257.069-.511.107-.763.122"/><path d="m1140.49979 680.129025c-1.744.102-3.405-.979-3.959-2.724-62.37-196.524-31.422-463.344-26.178-503.993-334.268001 52.973-831.183001 14.455-883.925001 10.139 2.165 36.063 14.787 278.655-22.85 485.337-.389 2.129-2.422 3.558-4.553 3.147-2.128-.38-3.539-2.419-3.151-4.548 40.385-221.779 22.641-485.309 22.456-487.941-.079-1.144.346-2.264 1.16-3.07.819-.799 1.93-1.178 3.087-1.108 5.374.481 541.183 46.311 891.731001-10.514 1.251-.212 2.478.199 3.368 1.073.89.867 1.312 2.114 1.131 3.35-.425 2.928-41.605 295.31 25.19 505.759.654 2.061-.488 4.265-2.549 4.914-.319.103-.637.16-.958.179"/><path d="m1267.59789 697.224425 29.199.031c5.386-.026 10.37-2.157 14.049-6.088 3.679-3.938 5.499-9.062 5.13-14.44 0 0-37.098-538.316-37.099-538.385-1.117-71.357-60.095-129.46400001-131.468-129.53700001l-969.244001-.977c-71.366.111-130.4679997 57.91800001-131.7299997 129.26800001l-38.57299997 543.812c-.278 3.938 1.049 7.698 3.73799997 10.58 2.686 2.891 6.333 4.476 10.278 4.482l34.71.036 39.508-556.918c.034-44.915 36.9169997-81.679 82.0189997-81.595l969.240001.978c21.888.024 42.461 8.565 57.923 24.055 15.464 15.498 23.965 36.084 23.941 57.975zm30.793 7.811c-.534.031-1.066.048-1.602.048l-32.848-.031c-2.057-.002-3.759-1.594-3.902-3.646l-38.64-560.644c.012-20.068-7.677-38.688-21.662-52.702-13.986-14.014-32.593-21.745-52.389-21.761l-969.240001-.978c-40.927-.138-74.153 33.179-74.194 74.051l-39.7759997 560.832c-.14 2.053-1.815 3.791-3.907 3.638l-38.36-.044c-6.047-.004-11.87999997-2.549-16.00399997-6.971-4.12-4.431-6.243-10.433-5.812-16.471l38.56299997-543.604c1.322-75.391 64.0039997-136.93900001 139.5539997-136.752425l969.244001.97742499c75.582.071 138.042 61.58800001 139.287 137.13500001l37.084 538.079c.511 7.454-2.121 14.861-7.223 20.323-4.735 5.066-11.284 8.116-18.173 8.521z"/><path d="m996.051489 642.078725c-251.366 14.769-679.879-1.566-684.278-1.736-2.161-.088-3.841-1.904-3.760947-4.069.090947-2.149 1.884947-3.756 4.067947-3.762 4.49.173 452.014 17.574 700.037001.719l.03-.002c2.145-.126 3.995 1.5 4.136 3.644.142 2.159-1.487 4.028-3.642 4.17-5.432.365-10.976.706-16.590001 1.036"/></g></svg>