<svg height="90" viewBox="0 0 105 90" width="105" xmlns="http://www.w3.org/2000/svg"><g fill="#fff" fill-rule="evenodd" transform="translate(.926648 .002845)"><path d="m63.0599524 7.6964555c-6.191-4.724-13.676-7.47-21.558-7.573-8.628-.11-17.004 3.074-23.733 8.517-2.08 1.681.858 4.541 2.927 2.871 11.407-9.222 27.979-9.587 39.445-.836 2.068 1.579 5.018-1.375 2.919-2.979"/><path d="m19.7963524 2.9940555c.07-.498.005-1.024-.178-1.489-.333-.856-.992-1.512-1.972-1.5050555-.918.0050555-1.766.6630555-2.015 1.5470555-1.366 4.782-2.732 9.563-4.096 14.342-.224.798.089 1.692.743 2.166.727.533 1.483.475 2.291.124 3.611-1.565 7.85-1.78 11.683-.715 2.562.708 3.663-3.298 1.11-4.005-4.948-1.37-10.135-.873-14.871 1.183 1.009.763 2.02 1.524 3.03 2.287 1.364-4.778 2.727-9.562 4.093-14.343-1.333.015-2.662.031-3.992.043.143.368.094-.002.04.388-.161 1.112 1.03 2.067 2.043 2.06 1.241-.01 1.933-.969 2.091-2.083"/><path d="m22.4463524 36.7039555c5.929-2.197 11.863-4.379 17.821-6.51 3.939-1.414 7.919-2.732 11.885-4.075 1.33-.453 2.676-.864 4.014-1.296l3.874-1.188c.791-.37 1.646-.598 2.629-.642l2.644-.711c.845-.619 1.764-1.047 2.775-1.352.184-.055.368-.112.553-.167-.25-.704-.504-1.405-.768-2.103-1.572.504-3.142 1.013-4.713 1.521-3.444 1.118-6.885 2.232-10.312 3.382-3.225 1.082-6.435 2.206-9.649 3.328-3.554 1.245-7.123 2.459-10.651 3.77-4.552 1.69-9.076 3.441-13.592 5.213-2.424.955-4.82 1.977-7.189 3.032-.797.356-1.548.848-2.19999996 1.399-1.043.873-1.673 2.008-1.803 3.366-.016.153.148.408.292.477.162.075.478.051.584-.054.319-.317.607-.675.844-1.051.63699996-1.009 1.55599996-1.717 2.63499996-2.261.46-.235.943-.439 1.429-.626 2.964-1.159 5.914-2.343 8.898-3.452"/><path d="m96.7192524 61.7315555c-.813-2.351-1.563-4.718-2.432-7.048-1.195-3.211-2.466-6.403-3.869-9.556-3.305-7.431-7.043-14.655-11.542-21.537-.357-.549-.669-1.128-1.007-1.692l-1.112-1.634c-.451-.379-.821-.722-1.227-1.025-.786-.594-1.656-1.008-2.607-.9991439-.966.0081439-1.953.0311439-2.878.2351439-1.943.422-3.879.88-5.806 1.358.303.743.598 1.487.888 2.233.14-.041.281-.08.421-.121 2.367-.689 4.814-1.177 6.94-2.29 1.588.319 2.474 1.391 3.239 2.61 2.413 3.854 4.755 7.747 6.902 11.739.21.385.37.791.518 1.111l.501 1.175c.512.56.791 1.132 1.011 1.773l.443.787c1.969 3.923 3.734 7.828 5.296 11.8 1.259 3.195 2.354 6.446 3.578 9.655.703 1.837.714 3.601.352 5.432-2.217.463-4.191 1.39-6.203 2.246-.891.375-1.787.742-2.686 1.099.353.775.706 1.549 1.06 2.323 1.922-.761 3.826-1.557 5.695-2.424.611-.287 1.2-.617 1.758-.986.591-.395 1.261-.745 1.31-1.616.009-.137.158-.258.257-.376.517-.624 1.036-1.246 1.642-1.973l-.108-1.738c-.12-.2-.268-.371-.334-.561"/><path d="m86.0811524 70.4023555c-.131-.393-.265-.786-.397-1.179-3.101 1.059-6.203 2.122-9.305 3.176-2.628.895-5.261 1.782-7.89 2.672-2.728.919-5.455 1.845-8.19 2.759-2.733.911-5.461 1.83-8.21 2.71-3.297 1.056-6.595 2.105-9.925 3.082-1.662.493-3.355.944-5.087 1.191-2.682.385-5.413.523-8.172.105-.371-.054-.75-.077-1.117-.065-.274.009-.559.153-.528.443.023.221.166.541.349.63.478.235 1.001.41 1.519.535 2.459.595 4.931.545 7.378.342 2.893-.242 5.657-.959 8.377-1.778 3.318-1 6.627-2.027 9.933-3.072 2.849-.903 5.691-1.827 8.528-2.768 3.331-1.108 6.65-2.245 9.976-3.361 3.277-1.106 6.558-2.193 9.831-3.308 1.109-.377 2.215-.758 3.322-1.138-.149-.317-.281-.642-.392-.976"/><path d="m96.1811524 63.6431555-.695.829c.13-1.575-.072-3.009-.618-4.427-.542-1.425-1.062-2.857-1.577-4.291-.651-1.801-1.299-3.594-2.004-5.377-1.556-3.956-3.3-7.842-5.358-11.926l-.396-.705c-.194-.545-.488-1.232-1.074-1.916l-.575-1.327c-.12-.278-.257-.59-.415-.884-1.885-3.498-4.088-7.249-6.941-11.799-.32-.53-.717-1.086-1.191-1.575.135.112.272.231.414.359l.308.261.995 1.457.308.533c.237.404.465.802.722 1.199 4.112 6.278 7.856 13.273 11.463 21.386 1.27 2.861 2.528 5.968 3.844 9.501.563 1.512 1.075 3.038 1.587 4.564.278.819.556 1.639.84 2.457.078.232.191.417.293.566zm-10.332 6.338c.913-.363 1.821-.736 2.724-1.118l.838-.359c1.506-.645 2.931-1.263 4.47-1.663-.096.07-.211.144-.342.234l-.176.113c-.518.347-1.073.657-1.642.919-1.836.853-3.703 1.636-5.632 2.4l-.876.292-1.356.508c-.357.122-.714.246-1.072.368-2.035.69-4.081 1.373-6.12 2.055l-7.34 2.476c-2.112.713-4.227 1.429-6.345 2.133-2.829.938-5.667 1.864-8.513 2.763-3.3 1.044-6.603 2.07-9.919 3.066-2.402.728-5.253 1.498-8.174 1.742-.819.067-1.688.123-2.595.132 1.105-.047 2.261-.162 3.495-.34 1.868-.268 3.688-.768 5.222-1.219 3.26-.959 6.433-1.97 9.942-3.092 2.293-.731 4.577-1.495 6.854-2.258l1.371-.458c2.369-.791 4.734-1.591 7.096-2.387l1.093-.372c2.633-.887 5.262-1.777 7.894-2.67 2.303-.784 4.602-1.572 6.902-2.361zm-21.24-49.231c2.125-.527 3.981-.962 5.727-1.341.18-.039.361-.072.544-.098-1.236.509-2.567.868-3.956 1.241-.576.152-1.155.307-1.724.474-.144.042-.288.083-.432.125l-3.298 1.079c-.629.114-1.236.298-1.831.567l-3.812 1.175c-.004-.002-.01-.001-.013.003l-1.252.398c-.925.293-1.856.587-2.773.901l-2.844.959c-2.974 1.005-6.053 2.041-9.057 3.116-5.132 1.836-10.629 3.848-17.832 6.518-2.188.811-4.357 1.666-6.524 2.517l-2.389.942c-.098.036-.198.075-.298.115 2.371-1.049 4.509-1.945 6.52-2.735 5.307-2.085 9.618-3.738 13.573-5.21 2.699-1.002 5.472-1.965 8.155-2.898l2.864-.998c3.078-1.075 6.161-2.15 9.258-3.19 2.666-.897 5.347-1.771 8.028-2.64zm-3.986-.71c-2.717.881-5.434 1.766-8.136 2.674-3.106 1.045-6.192 2.124-9.278 3.203l-2.859.991c-2.692.938-5.477 1.904-8.192 2.916-3.968 1.474-8.294 3.133-13.609 5.223-2.211.869-4.577 1.864-7.228 3.044-.836.372-1.64799996.887-2.41199996 1.528-1.222 1.024-1.946 2.382-2.097 3.926-.05.531.341 1.162.868 1.403.471.221 1.245.198 1.668-.22.365-.355.68799996-.759.96399996-1.194.498-.79 1.246-1.43 2.291-1.955.435-.22.894-.413 1.35-.593l2.395-.943c2.158-.846 4.313-1.695 6.492-2.501 7.194-2.671 12.686-4.676 17.808-6.513 2.99-1.069 6.062-2.103 9.028-3.104l2.846-.963c.906-.304 1.821-.598 2.738-.886l5.122-1.589c.04-.011.081-.026.121-.047.657-.306 1.331-.478 2.05-.531l2.927-.928c.139-.041.28-.079.419-.12.561-.162 1.125-.311 1.688-.467 1.714-.458 3.483-.934 5.1-1.726.971.293 1.585 1.002 2.233 2.033-.002.004.002.007.006.009 2.824 4.509 5.006 8.223 6.869 11.678.129.246.238.499.338.73l.637 1.47c.05.112.11.216.194.308.349.378.579.783.79 1.396.02.064.044.12.079.177l.417.742c2.001 3.983 3.721 7.812 5.257 11.705.698 1.767 1.34 3.545 1.98 5.327.524 1.446 1.044 2.889 1.594 4.326.516 1.352.646 2.746.396 4.359-1.77.436-3.288 1.447-4.863 2.125l-.829.354c-.88.374-1.732.724-2.621 1.078l-2.141.676c-2.338.798-4.675 1.597-7.014 2.394-2.625.892-5.255 1.781-7.884 2.671l-1.096.369c-2.363.796-4.728 1.596-7.091 2.386l-1.371.458c-2.271.762-4.546 1.521-6.829 2.253-3.501 1.117-6.659 2.122-9.901 3.078-1.468.43-3.206.91-4.954 1.156-3.004.433-5.508.467-7.88.109-.44-.069-.877-.093-1.307-.08-.438.017-.832.185-1.083.462-.232.248-.336.575-.303.918.022.214.113.548.307.845.14.213.329.406.591.536.51.251 1.096.457 1.732.612 2.73.663 5.425.554 7.707.369 3.1-.259 6.074-1.064 8.57-1.814 3.324-1.002 6.636-2.032 9.945-3.075 2.855-.904 5.699-1.831 8.543-2.775 2.118-.704 4.235-1.424 6.354-2.138l7.331-2.471c2.045-.683 4.087-1.369 6.128-2.061.451-.153.902-.309 1.353-.463l2.039-.595c1.969-.779 3.876-1.579 5.759-2.454.646-.301 1.275-.652 1.866-1.047l.162-.107c.576-.372 1.353-.879 1.505-1.953.031-.033.075-.086.079-.093l1.643-1.967c.142-.17.21-.387.196-.618l-.109-1.738c-.009-.161-.056-.321-.144-.466-.05-.086-.102-.16-.152-.235-.034-.051-.069-.098-.088-.128-.283-.812-.557-1.629-.829-2.439-.52-1.549-1.04-3.097-1.612-4.631-1.329-3.571-2.603-6.716-3.893-9.613-3.656-8.219-7.458-15.311-11.626-21.689-.233-.357-.443-.726-.656-1.097l-.361-.614-1.116-1.636c-.052-.082-.122-.153-.199-.219l-.403-.344c-.297-.259-.575-.499-.871-.719-1.076-.814-2.17-1.221-3.235-1.2102171-1.047.0072171-2.07.0372171-3.066.2512171-1.798.391-3.605 1.151-5.794 1.695z"/><path d="m7.93455244 43.4560555.008.011z"/><path d="m16.7619524 84.3714555c-.921-.29-1.642-.516-2.36-.746-.307-.102-.622-.199-.911-.336-.346-.164-.562-.596-.409-.917.184-.4.444-.772.706-1.137.482-.684 1.105-1.281 1.446-2-.21-.385-.514-.29-.755-.365-.989-.291-1.984-.556-2.944-.908-.619-.228-.794-.707-.517-1.257.246-.486.576-.939.896-1.386.345-.485.727-.945 1.16-1.498-.362-.196-.646-.325-.896-.489-.635-.412-1.297-.8-1.866-1.28-.77499996-.641-.84899996-1.249-.32899996-2.024.36499996-.539.78599996-1.042 1.24799996-1.649-.276-.125-.491-.271-.72-.316-.85799996-.169-1.66999996-.472-2.40599996-.94-.475-.302-.677-.708-.501-1.193.188-.509.467-.989.737-1.465.215-.375.48-.722.776-1.155-1.21-.363-2.287-.681-3.364-1.005-.207-.063-.422-.104-.623-.184-.406-.151-.596-.56-.358-.857.373-.471.786-.915 1.201-1.354.477-.508 1.059-.937 1.433-1.666-.473-.21-.904-.388-1.324-.591-.441-.211-.874-.433-1.3-.666-.849-.463-.965-.824-.482-1.591.292-.467.641-.901.956-1.358.113-.163.203-.34.345-.58-.437-.16-.825-.315-1.219-.453-.512-.184-1.038-.329-1.537-.531-.569-.233-.717-.641-.442-1.108.127-.216.276-.419.436-.614.154-.194.34-.372.522-.569-.16-.405-.587-.438-.887-.614-.707-.423-1.326-.925-1.782-1.593-.315-.466-.312-.896.124-1.205.369-.257.789-.487 1.23-.629 1.445-.467 2.909-.89 4.366-1.328.15-.043.306-.088.457-.126 1.27-.313 1.562-.195 2.217.915 1.01899996 1.719 1.79699996 3.532 2.54899996 5.354 2.424 5.846 4.799 11.713 7.272 17.543 1.945 4.588 4.179 9.076 6.533 13.507.634 1.191.877 2.415 1.072 3.665.033.206-.132.514-.312.628-.341.213-.749.361-1.152.469-1.322.359-2.653.685-3.981 1.023-.82.204-1.644.4-2.453.621-.719.196-1.435.331-2.208.218-.868-.123-1.241-.622-.963-1.397.186-.515.455-.997.689-1.497.187-.404.371-.804.63-1.366m8.202.499c-.417-.6-.914-1.175-1.234-1.817-1.756-3.5-3.546-6.985-5.168-10.528-1.558-3.406-2.976-6.867-4.373-10.326-1.107-2.74-2.099-5.516-3.134-8.278-.665-1.791-1.26699996-3.609-1.98999996-5.386-.338-.839-.589-1.763-1.282-2.361-1.618.506-3.147.981-4.712 1.469.14.34.396.44.637.546.446.203.909.365 1.345.583.751.379.918 1.015.442 1.651-.196.266-.44.501-.755.852.336.089.526.146.719.188.473.106.965.151 1.419.317.882.317 1.215 1.11.808 1.864-.166.302-.414.566-.638.835-.388.461-.785.912-1.272 1.477.548.081.956.133 1.36.198.636.108 1.291.17 1.91.35 1.07699996.308 1.39799996 1.183.763 2.02-.268.36-.611.672-.936.991-.495.48-1.003.947-1.594 1.502.367.035.583.035.792.078.738.159 1.494.276 2.20799996.519.95.319 1.308 1.161.872 1.975-.208.396-.525.735-.809 1.086-.34499996.421-.71199996.827-1.06399996 1.234.108.076.147.128.196.134.69199996.102 1.39099996.177 2.07999996.298.474.08.966.166 1.405.355.676.287.907.944.571 1.535-.195.346-.484.64-.733.956-.551.701-1.3 1.263-1.793 2.124.379.097.683.196.995.249.636.107 1.282.158 1.917.291 1.889.405 2.253 1.324 1.052 2.647-.541.597-1.127 1.161-1.679 1.751-.116.129-.16.316-.274.552.34.045.546.075.757.092.856.084 1.722.105 2.568.261 1.493.277 1.946 1.359 1.049 2.466-.502.628-1.089 1.191-1.625 1.798-.18.202-.315.44-.539.756.52.074.889.122 1.258.185.376.063.756.102 1.108.223 1.194.395 1.528 1.105 1.014 2.127-.183.359-.424.685-.625 1.032-.175.296-.335.596-.505.895.104.058.152.105.179.097 2.36-.561 4.713-1.126 7.068-1.695.088-.022.156-.109.242-.168"/><path d="m15.0726524 88.3731555c-.166-.252-.309-.683-.085-1.305.135-.364.307-.715.482-1.068.073-.152.149-.308.225-.463l.415-.903-.297-.094c-.557-.178-1.05-.333-1.545-.495-.378-.122-.687-.22-.973-.355-.598-.284-.903-.99-.654-1.521.214-.445.505-.864.741-1.199.181-.25.376-.491.571-.731.245-.302.482-.589.668-.888-.088-.011-.18-.023-.261-.051l-.741-.213c-.737-.216-1.5-.434-2.237-.707-.53-.196-.764-.513-.868-.74-.108-.244-.186-.638.072-1.143.255-.507.585-.97.903-1.413.264-.37.525-.693.805-1.047l.068-.087c-.161-.084-.304-.163-.447-.251l-.432-.279c-.498-.317-1.012-.65-1.479-1.036-.94499996-.79-1.08399996-1.645-.42799996-2.61.253-.377.53499996-.734.83699996-1.12l.094-.128c-.021-.008-.048-.015-.067-.018-.95499996-.19-1.82699996-.532-2.58799996-1.016-.687-.437-.944-1.064-.703-1.727.192-.517.465-.996.728-1.46.17-.289.326-.519.487-.755l-2.946-.873c-.148-.04-.3-.081-.444-.134-.355-.134-.631-.41-.738-.728-.098-.291-.043-.592.146-.831.38-.483.805-.936 1.227-1.385.127-.138.268-.272.405-.408.255-.243.501-.482.711-.76-.293-.124-.57-.248-.842-.38-.444-.213-.889-.442-1.326-.682-.404-.219-.836-.508-.974-.962-.14-.461.072-.896.3-1.258.189-.296.4-.584.611-.872.118-.165.239-.333.358-.497.022-.033.043-.067.068-.103-.232-.089-.456-.173-.682-.253-.188-.066-.376-.127-.563-.186-.337-.112-.671-.221-1.001-.353-.518-.214-.731-.523-.817-.743-.087-.221-.132-.577.124-1.014.136-.232.301-.45.471-.66.083-.103.17-.204.268-.303-.039-.015-.08-.032-.125-.051-.125-.051-.25-.101-.359-.167-.852-.508-1.488-1.079-1.94-1.745-.45-.686-.393-1.365.217-1.796.43-.302.899-.542 1.354-.69 1.058-.342 2.131-.659 3.199-.978l1.18-.352c.158-.049.314-.094.478-.134 1.491-.368 2.01-.164 2.776 1.146 1.04199996 1.765 1.84899996 3.645 2.58099996 5.417.792 1.912 1.581 3.822 2.363 5.732 1.624 3.94 3.242 7.881 4.908 11.805 1.734 4.092 3.808 8.374 6.516 13.469.682 1.286.926 2.59 1.118 3.812.065.406-.211.857-.507 1.042-.336.216-.755.388-1.277.524-.987.268-1.981.521-2.972.77l-1.849.465c-.541.134-1.076.267-1.609.412-.689.19-1.512.359-2.412.231-.747-.107-1.107-.433-1.278-.693-.004-.003-.005-.008-.009-.011m2.091-4.22c.012.013.022.03.028.045.063.12.065.253.01.369l-.626 1.369c-.075.162-.16.322-.238.482-.159.322-.318.644-.442.984-.049.131-.112.379-.014.534.083.122.282.212.571.254.714.1 1.386-.042 2.003-.211.541-.15 1.086-.281 1.634-.416l1.845-.468c.989-.245 1.974-.493 2.955-.759.434-.115.768-.254 1.027-.416.05-.035.118-.164.123-.219-.181-1.135-.407-2.354-1.024-3.513-2.723-5.121-4.804-9.424-6.551-13.545-1.666-3.924-3.288-7.867-4.909-11.811-.787-1.913-1.571-3.82-2.363-5.732-.719-1.742-1.50999996-3.585-2.52199996-5.298-.548-.914-.6-.938-1.656-.679-.145.036-.289.079-.433.121l-1.186.353c-1.06.315-2.123.633-3.174.974-.367.117-.749.314-1.104.565-.119.085-.29.241-.027.609.379.554.893 1.014 1.625 1.448.065.037.137.063.211.096.272.106.689.274.88.753.06.156.032.327-.077.445l-.177.189c-.118.123-.23.238-.332.361-.144.179-.278.365-.396.561-.065.116-.095.217-.07.276.023.052.119.131.261.187.302.125.612.224.925.324.194.065.393.132.587.196.278.099.551.205.841.316l.389.146c.131.049.234.148.289.274.048.127.042.264-.027.377l-.123.22c-.085.144-.157.27-.238.386-.12.174-.244.345-.371.515-.198.27-.393.542-.573.824-.228.361-.233.506-.214.565.017.054.103.179.504.395.419.228.847.452 1.276.655.283.139.576.263.883.396l.428.192c.118.052.214.146.261.267.046.114.041.242-.013.349-.309.598-.741 1.014-1.122 1.385-.128.122-.258.247-.378.374-.41.431-.812.867-1.181 1.331.001.079.043.128.126.161.114.044.228.071.345.101l.246.067 3.36 1.003c.149.045.272.147.323.286.059.134.046.283-.035.398l-.276.404c-.177.252-.341.487-.482.732-.287.501-.542.944-.709 1.398-.066.189-.086.413.297.654.662.42 1.392.704 2.22999996.871.229.045.418.143.603.238.071.036.145.075.23.115.133.061.235.17.272.3.043.134.017.27-.065.379l-.429.555c-.292.372-.561.717-.802 1.075-.41199996.603-.359.954.224 1.438.415.347.881.648 1.371.96l.444.286c.157.098.321.185.512.279l.349.182c.125.067.215.178.248.305.034.133.006.263-.075.362l-.395.504c-.272.343-.522.658-.757.983-.323.451-.634.884-.859 1.331-.084.167-.107.315-.061.413.047.105.185.175.292.213.702.262 1.446.477 2.169.684l.743.215c.327.041.774.082 1.06.608.067.123.074.264.014.388-.235.509-.599.95-.949 1.378-.183.222-.368.448-.533.682-.281.395-.502.724-.671 1.076-.037.081.041.259.167.315.246.115.512.2.777.285.563.186 1.056.341 1.61.516l.822.256c.113.037.207.11.269.209m-.049 2.702c-.096-.142-.135-.316-.067-.444l.159-.281c.112-.21.23-.422.354-.626.079-.137.163-.272.25-.404.128-.195.253-.393.358-.602.195-.384.242-.695.135-.918-.109-.235-.392-.421-.849-.574-.246-.083-.512-.121-.774-.162l-.257-.042c-.241-.043-.479-.073-.764-.112l-.481-.07c-.164-.023-.309-.123-.383-.267-.072-.147-.064-.311.024-.437l.195-.288c.131-.199.239-.364.374-.513.209-.237.431-.47.652-.704.332-.351.663-.702.961-1.075.334-.413.448-.818.315-1.121-.129-.3-.501-.519-1.043-.617-.549-.103-1.101-.144-1.688-.188-.281-.022-.559-.041-.837-.066-.139-.012-.278-.035-.453-.056l-.317-.039c-.156-.019-.284-.097-.376-.237-.081-.133-.091-.287-.026-.417.036-.072.064-.138.089-.2.064-.153.126-.312.26-.451.252-.271.514-.542.776-.812.302-.307.607-.618.896-.938.464-.513.666-.948.558-1.225-.113-.285-.581-.519-1.319-.678-.366-.077-.729-.126-1.098-.173-.267-.034-.532-.072-.799-.115-.227-.039-.446-.099-.696-.168l-.342-.088c-.144-.037-.271-.141-.335-.268-.062-.13-.06-.277.013-.397.331-.583.756-1.02 1.17-1.449.23-.238.458-.473.659-.731.079-.095.158-.191.237-.287.169-.194.335-.39.458-.609.105-.184.129-.38.064-.538-.061-.156-.195-.281-.387-.365-.383-.162-.841-.243-1.286-.319-.439-.078-.88-.136-1.324-.191l-.74299996-.104c-.091-.013-.28-.111-.352-.169-.108-.076-.217-.216-.236-.339-.022-.126-.025-.275.058-.368l.314-.357c.252-.287.504-.574.745-.869l.17599996-.211c.227-.273.441-.527.587-.805.151-.285.177-.573.067-.815-.102-.23-.33-.411-.648-.521-.49599996-.167-1.01599996-.273-1.56599996-.381l-.585-.121c-.112-.022-.228-.029-.374-.041l-.355-.028c-.188-.019-.351-.131-.422-.304-.069-.167-.031-.352.1-.472l.551-.517c.365-.34.7-.657 1.031-.976l.133-.129c.284-.272.548-.53.763-.816.223-.291.293-.581.203-.814-.09-.223-.333-.398-.691-.502-.413-.119-.849-.184-1.305-.252l-.545-.085c-.266-.043-.531-.081-.84-.125l-.507-.07c-.173-.025-.323-.134-.394-.291-.066-.154-.042-.328.064-.448l.437-.513c.298-.342.565-.651.828-.963l.13-.157c.179-.209.349-.403.461-.613.136-.248.159-.507.068-.72-.097-.221-.304-.395-.597-.503-.257-.09-.548-.144-.851-.196-.171-.028-.336-.058-.5-.097-.133-.03-.264-.063-.433-.111l-.305-.079c-.166-.046-.295-.162-.35-.31-.054-.151-.023-.31.08-.426l.298-.326c.166-.18.309-.334.432-.496.113-.147.23-.365.171-.572-.055-.189-.26-.334-.423-.415-.252-.129-.515-.234-.776-.342-.184-.073-.367-.147-.546-.227-.294-.13-.689-.306-.899-.813-.046-.114-.043-.239.008-.348.054-.106.145-.189.268-.224l4.71-1.465c.164-.05.35-.012.483.107.665.574.962 1.349 1.247 2.1l.171.439c.465 1.144.88399996 2.316 1.28999996 3.446.23.652.463 1.306.705 1.955l.762 2.055c.756 2.046 1.535 4.155 2.366 6.208 1.348 3.342 2.795 6.886 4.363 10.309 1.337 2.919 2.817 5.852 4.245 8.687l.917 1.826c.204.403.483.781.778 1.181.142.193.286.383.419.581.14.219.097.453-.09.594l-.304-.364.257.402c-.072.063-.185.162-.355.204-2.355.569-4.712 1.132-7.068 1.694-.131.031-.359-.03-.477-.108-.077-.05-.15-.124-.205-.208m1.961-3.784c.037.056.069.119.101.183.223.478.177 1.038-.138 1.668-.117.234-.262.455-.403.678-.08.121-.159.249-.235.373-.025.046-.052.087-.075.129 1.979-.469 3.956-.944 5.936-1.423-.034-.043-.063-.088-.097-.132-.312-.416-.63-.846-.867-1.318l-.917-1.826c-1.433-2.844-2.914-5.783-4.259-8.722-1.574-3.438-3.027-6.997-4.379-10.341-.837-2.068-1.619-4.189-2.373-6.239l-.763-2.051c-.244-.655-.477-1.31-.71499996-1.966-.404-1.14-.811-2.283-1.273-3.408l-.177-.459c-.217-.575-.425-1.117-.779-1.524l-3.664 1.141c.146.059.274.112.407.167.291.118.576.237.853.377.621.314.849.727.934 1.015.084.298.098.765-.299 1.305-.085.113-.182.228-.289.342.132.024.264.047.394.075.336.057.685.119 1.029.245.557.203.98.57 1.178 1.038.204.466.168.985-.091 1.467-.155.284-.36.523-.559.755l-.129.147c-.234.284-.475.562-.739.868.177.027.341.05.508.076l.522.08c.471.068.96.142 1.443.28.67.193 1.14499996.584 1.34799996 1.092.21.522.097 1.102-.307 1.637-.25199996.335-.55399996.626-.84499996.908l-.133.129c-.291.283-.586.563-.9.857l.397.077c.561.116 1.138.232 1.69899996.422.583.194 1.026.569 1.247 1.051.221.489.19 1.048-.087 1.566-.185.353-.44.654-.685.946l-.167.206c-.201.242-.406.481-.615.718l.141.019c.45.059.911.12 1.362.195.505.09 1.026.179 1.518.392.447.194.78.513.932.914.16.405.119.853-.108 1.262-.156.277-.356.509-.547.736l-.224.269c-.216.279-.462.534-.717.793-.251.261-.495.512-.71.792.1.023.196.045.295.062.257.043.513.079.764.113.399.051.791.104 1.177.189 1.124.239 1.816.668 2.054 1.283.239.615-.004 1.32-.713 2.102-.295.328-.604.646-.917.961-.217.226-.44.454-.654.682.01.001.016 0 .03.004.269.024.54.044.811.064.588.044 1.197.087 1.802.2.883.164 1.52.589 1.789 1.198.273.617.124 1.325-.417 1.996-.32.39-.664.76-1.01 1.127-.215.222-.429.451-.635.684-.034.036-.066.077-.099.119.177.027.341.051.506.08l.243.039c.31.05.627.096.945.205.635.212 1.089.516 1.345.911"/><path d="m97.0547524 62.2946555c1.117-.306 2.178-.574 3.0689996-1.259-.4009996-.31-.7749996-.568-1.0979996-.8740023-.504-.4769977-.639-1.0459977-.4-1.6399977.153-.372.344-.729.549-1.17-.258-.06-.46-.125-.668-.155-.268-.0350023-.544-.015-.809-.074-2.235-.5-2.794-2.301-1.926-3.633.168-.256.339-.518.48-.793.134-.254.23-.534.34-.793-.664-.214-1.267-.335-1.81-.597-1.282-.611-1.765-1.797-1.228-2.991.252-.562.615-1.068.965-1.578.227-.337.516-.624.869-1.043-.476-.11-.828-.192-1.187-.274-.535-.117-1.085-.175-1.602-.367-.947-.348-1.498-1.134-1.408-2.037.035-.4.234-.795.438-1.137.279-.466.64-.88 1.003-1.369-.606-.08-1.092-.112-1.572-.214-.368-.083-.753-.21-1.087-.402-1.028-.576-1.397-1.465-1.017-2.483.16-.429.445-.807.682-1.203.202-.339.414-.669.609-.979-.108-.12-.143-.195-.183-.201-.32-.038-.644-.089-.967-.096-2.538-.067-3.335-1.75-2.216-3.528.27-.423.475-.891.761-1.446-.347-.012-.546-.02-.747-.035-.539-.032-1.091.01-1.614-.128-1.243-.33-1.735-1.52-1.086-2.537.19-.302.446-.563.678-.836.224-.262.457-.511.671-.747-.277-.416-.631-.346-.942-.427-.635-.166-1.296-.279-1.911-.53-1.262-.509-1.651-1.402-1.242-2.615.086-.265.41-.478.072-.882-1.08.166-2.182.334-3.284.511-.099.013-.19.082-.365.168l-1.116-1.637c.806-.194 1.623-.396 2.445-.573.88-.191 1.756-.402 2.656-.512.898-.107 1.369.291 1.413 1.195.04.795-.05 1.582-.087 2.505.296.386.896.273 1.41.443.889.295 1.807.506 2.692.826.632.231.846.751.573 1.321-.199.412-.496.776-.772 1.139-.281.371-.597.712-.886 1.071-.057.075-.064.192-.102.298.891.898 2.201.486 3.147 1.18.159 1.426-.987 2.325-1.013 3.676.532.281 1.067.293 1.594.372.596.089 1.191.188 1.775.357.626.171.929.694.716 1.262-.177.482-.47.91-.728 1.358-.355.616-.848 1.157-.994 1.959.9.575 1.864.835 2.792 1.18 1.085.395 1.293.873.755 1.796-.211.354-.485.669-.703 1.018-.194.299-.354.622-.575 1.019.346.233.639.483.971.634.712.331 1.452.588 2.159.915.638.301.818.709.576 1.334-.187.481-.439.938-.697 1.385-.332.578-.685 1.146-.8 1.932.268.178.526.371.803.533.535.311 1.09.58 1.624.902.75.451.912.853.606 1.636-.3.771-.663 1.514-1.034 2.341.301.228.53.494.813.594.781.286 1.575.587 2.3749996.72.684.119 1.018.707.798 1.33-.103.292-.28.554-.419.825-.111.226-.22.447-.38.771.532.237.99.41 1.427.636.498.257 1.003.513 1.447.849.48.366.506 1.052.077 1.412-.273.227-.601.394-.929.543-1.334.6-2.7039996 1.102-4.1809996 1.364-.362.065-.715.169-.937.223z"/><path d="m96.7577524 64.2573555c-.047-.072-.071-.155-.077-.243l-.108-1.737c-.013-.208.114-.389.315-.446l.168-.047c.805-.217 1.572-.427 2.241-.8-.207-.162-.406-.319-.586-.49-.663-.622-.852-1.402-.535-2.183.084-.217.183-.423.289-.64-.089-.013-.182-.018-.276-.024-.185-.004-.372-.014-.554-.059-1.198-.265-2.08-.904-2.494-1.791-.385-.829-.302-1.798.218-2.596.161-.246.324-.495.46-.753.042-.086.082-.168.118-.253-.021-.01-.045-.015-.062-.022-.445-.126-.862-.243-1.268-.441-.752-.359-1.294-.896-1.564-1.561-.273-.661-.248-1.378.066-2.084.242-.536.575-1.019.892-1.486l.106-.156c.116-.162.236-.315.377-.475l-.345-.077c-.164-.039-.327-.071-.493-.1-.385-.072-.784-.149-1.175-.292-1.177-.438-1.871-1.447-1.762-2.573.049-.512.291-.977.501-1.32.149-.254.321-.491.506-.731-.249-.032-.486-.067-.717-.119-.471-.1-.887-.255-1.234-.45-1.255-.708-1.723-1.866-1.264-3.1.131-.355.327-.658.519-.954l.199-.317c.1-.172.202-.338.305-.498-.131-.014-.264-.025-.392-.027-1.378-.039-2.415-.488-2.918-1.378-.485-.823-.394-1.885.253-2.908.143-.225.263-.466.395-.726-.141-.006-.285-.008-.426-.014-.4-.006-.813-.015-1.235-.125-.739-.196-1.319-.671-1.599-1.293-.287-.638-.223-1.366.177-1.995.164-.249.36-.475.557-.7l.159-.181c.097-.114.195-.222.295-.333-.089-.013-.178-.026-.265-.049-.176-.047-.356-.085-.534-.128-.474-.113-.963-.226-1.441-.42-.737-.298-1.245-.723-1.516-1.273-.283-.564-.299-1.232-.046-1.981.014-.04.032-.077.052-.118l-.023.001c-.878.136-1.771.269-2.66.415l-.244.126c-.214.103-.49.019-.634-.193l-1.116-1.637c-.088-.128-.113-.289-.066-.427.046-.145.161-.246.306-.281l.74-.174c.567-.136 1.136-.276 1.715-.397l.456-.104c.725-.157 1.476-.323 2.241-.414.592-.073 1.07.042 1.424.342.35.297.543.753.573 1.348.026.571-.006 1.133-.043 1.72-.009.181-.02.367-.033.556.105.03.249.049.377.068.214.028.437.059.648.125.379.129.762.239 1.142.347.526.15 1.05.304 1.565.49.559.202.815.547.933.802.168.367.148.794-.045 1.199-.189.397-.451.737-.702 1.068l-.114.151c-.164.216-.341.417-.516.625-.088.108-.18.215-.266.32.312.193.699.255 1.128.326.536.09 1.144.194 1.685.592.115.092.199.228.212.364.1.899-.238 1.61-.534 2.235-.187.393-.365.764-.436 1.161.245.074.508.11.777.145l.324.041c.552.08 1.204.191 1.837.368.449.128.813.385 1.008.76.197.354.222.769.075 1.168-.149.403-.365.764-.577 1.111l-.182.314c-.1.172-.211.337-.319.504-.211.32-.416.628-.537.985.552.3 1.127.502 1.736.71.207.074.413.142.617.22.488.178 1.081.464 1.304 1.013.232.561-.032 1.125-.254 1.505-.124.211-.266.408-.412.604-.101.138-.204.281-.298.425-.124.194-.23.395-.354.622.182.134.346.244.505.317.347.162.696.303 1.045.444.373.153.75.303 1.118.474.881.412 1.188 1.114.856 1.973-.202.515-.469.994-.724 1.438l-.064.115c-.253.44-.498.858-.622 1.367.154.109.31.213.475.313.232.13.466.257.704.386.311.169.623.334.924.519.973.587 1.229 1.258.845 2.246-.215.544-.458 1.074-.709 1.625l-.184.406c.129.114.254.218.344.254.83.304 1.569.571 2.2839996.694.469.076.854.326 1.089.696.238.383.289.855.129 1.3-.074.218-.187.42-.3.622-.045.084-.094.171-.139.255l-.151.308c.339.139.654.273.956.431.538.28 1.053.544 1.524.898.34.261.556.646.586 1.053.04.437-.126.839-.451 1.107-.323.274-.721.468-1.026.607-1.597.713-2.9559996 1.162-4.2819996 1.397-.252.043-.496.108-.693.158l-.223.057c-.14.035-.296.002-.419-.096-.057-.04-.102-.089-.137-.146m.8-1.589.046.75c.121-.031.246-.059.372-.08 1.249-.224 2.5439996-.647 4.0699996-1.332.275-.126.587-.276.833-.484.108-.089.162-.222.151-.362-.005-.07-.033-.2-.166-.299-.394-.295-.867-.54-1.326-.775-.329-.172-.628-.299-.953-.435l-.485-.209c-.1269996-.056-.2329996-.164-.2849996-.289-.054-.132-.048-.272.006-.388l.3819996-.774c.05-.098.102-.193.155-.289.091-.156.182-.313.24-.488.064-.175.057-.34-.016-.458-.085-.132-.243-.182-.359-.203-.8069996-.138-1.5909996-.421-2.3529996-.704-.396-.141-.609-.33-.82-.512-.078-.066-.159-.135-.247-.202-.191-.145-.263-.395-.172-.596l.337-.745c.244-.54.478-1.054.687-1.58.215-.555.163-.697-.379-1.024-.288-.17-.587-.331-.88-.493-.248-.131-.49-.263-.73-.405-.207-.118-.401-.249-.593-.384l-.242-.166c-.168-.112-.261-.311-.236-.502.119-.817.464-1.408.791-1.977l.062-.111c.242-.414.488-.86.669-1.323.16-.411.073-.522-.292-.691-.35-.164-.707-.311-1.066-.453-.364-.152-.732-.296-1.09-.466-.273-.125-.513-.295-.743-.463-.098-.069-.199-.14-.307-.21-.226-.149-.301-.439-.185-.655l.202-.366c.133-.243.251-.463.387-.676.103-.16.216-.318.33-.469.128-.175.254-.345.364-.533.261-.445.235-.624.215-.677-.025-.056-.137-.207-.677-.405-.197-.073-.4-.144-.6-.213-.754-.261-1.535-.53-2.295-1.017-.179-.12-.278-.328-.24-.522.123-.675.456-1.185.752-1.634.104-.153.205-.308.295-.465l.193-.323c.196-.33.381-.642.506-.968.035-.102.064-.247-.002-.366-.049-.106-.185-.19-.354-.238-.577-.164-1.162-.262-1.708-.343l-.305-.038c-.439-.056-.943-.118-1.456-.387-.179-.093-.29-.281-.29-.474.014-.725.288-1.305.556-1.867.234-.497.46-.972.468-1.502-.293-.146-.649-.204-1.023-.269-.642-.11-1.375-.23-1.982-.845-.138-.142-.186-.336-.13-.506.041-.164.072-.303.172-.431.128-.158.261-.313.393-.468.162-.195.33-.391.485-.591l.117-.155c.236-.308.457-.6.613-.915.077-.161.092-.3.047-.403-.053-.115-.196-.188-.31-.23-.494-.176-.997-.321-1.495-.463-.398-.115-.791-.226-1.183-.359-.147-.049-.304-.065-.464-.084-.387-.053-.875-.115-1.206-.541-.076-.104-.114-.218-.107-.335.011-.291.027-.572.045-.846.032-.563.064-1.098.038-1.618-.014-.292-.085-.502-.191-.6-.114-.096-.34-.129-.636-.094-.72.088-1.447.249-2.153.403l-.46.101c-.567.119-1.134.255-1.69.392l-.125.029.479.702c.033-.01.069-.018.106-.025.893-.143 1.788-.28 2.668-.41l.619-.099c.177-.024.358.048.477.187.49.578.205 1.044.088 1.244-.021.034-.048.07-.058.113-.173.502-.178.924-.018 1.241.143.294.467.555.947.745.399.165.831.266 1.284.369.188.044.376.089.561.137.055.016.11.022.169.03.279.037.739.102 1.086.623.129.212.117.424-.019.577l-.199.218c-.155.167-.315.341-.468.52l-.164.189c-.172.193-.341.383-.48.6-.236.369-.283.772-.127 1.114.143.327.459.566.885.679.3.079.639.086.999.097.169.003.345.006.516.016l.737.034c.171.01.332.107.424.255l.004.002c.092.148.106.329.028.473l-.253.511c-.177.35-.335.67-.523.968-.459.725-.554 1.425-.26 1.919.282.558 1.026.818 2.025.844.292.006.584.046.876.087l.141.016c.134.018.352.171.437.287.153.162.255.488.146.666l-.19.302c-.136.213-.275.441-.414.668-.065.115-.14.228-.214.341-.171.271-.333.527-.434.798-.297.784-.038 1.414.77 1.868.254.146.572.26.936.34.314.067.631.102.981.145l.552.063c.178.026.329.139.412.302.077.164.066.35-.033.484l-.337.436c-.234.305-.456.589-.639.897-.151.247-.355.616-.385.954-.064.667.334 1.229 1.061 1.498.311.115.647.181 1.005.246.179.032.355.068.532.104l1.187.274c.17.037.312.165.382.324.066.163.042.345-.066.468l-.332.384c-.197.225-.366.415-.514.631l-.107.156c-.299.436-.61.884-.822 1.353-.205.468-.231.931-.063 1.342.168.41.521.747 1.022.99.33.156.703.264 1.107.378.204.061.421.12.64.192.138.047.255.146.317.273.066.129.072.277.022.402l-.096.236c-.078.198-.156.397-.256.586-.151.291-.329.564-.504.832-.354.545-.417 1.158-.173 1.689.27.577.89.997 1.75 1.19.127.028.252.034.38.036.129.008.261.013.389.031.162.026.323.062.498.108l.217.059c.151.035.285.14.354.272.071.139.081.3.019.427l-.195.398c-.129.263-.247.5-.346.75-.169.417-.087.767.26 1.094.21.193.436.369.6849996.55l.379.294c.123.098.197.239.206.383.006.148-.054.282-.166.369-.8639996.666-1.8429996.958-2.8819996 1.242"/><path d="m61.3977524 23.7283555c-.434.204-.846.445-1.249.722-7.879 5.435-15.61 11.046-23.119 16.919-6.523 5.104-12.899 10.353-18.853 16.042-.409.39-.916.704-1.178 1.327l-.424-.99c.336-.295.588-.477.8-.696 4.668-4.686 9.663-9.045 14.843-13.22 6.567-5.292 13.317-10.363 20.213-15.274 1.241-.886 2.527-1.71 3.789-2.572.431-.295.843-.61 1.203-1.037z"/><path d="m66.8102524 22.3394555c-7.212 5.262-14.479 10.456-21.662 15.754-7.567 5.587-14.817 11.515-21.654 17.882-1.826 1.702-3.611 3.447-5.43 5.18l-.459-.929c.344-.305.581-.498.79-.712 3.254-3.361 6.7-6.543 10.262-9.611 10.809-9.314 22.409-17.724 34.178-25.942.42-.293.838-.593 1.26-.89z"/><path d="m17.8279524 60.0955555c.266 1.166.839 2.169 1.301 3.205.467 1.045.938 2.092 1.413 3.132.473 1.043.952 2.085 1.439 3.122.46.993.925 1.983 1.396 2.973.494 1.036.981 2.073 1.498 3.098.523 1.024 1.102 2.026 1.619 3.051.495.984 1.243 1.882 1.532 2.989-.576.058-.714-.244-.887-.494-1.442-2.092-2.767-4.244-3.836-6.512-2.041-4.34-4.105-8.668-6.056-13.039-1.23-2.753-2.282-5.568-3.398-8.357-.714-1.781-1.414-3.569-2.093-5.365-.329-.87-.599-1.758-.882-2.64-.047-.146-.07-.304-.06-.455.007-.075.09-.184.168-.206.084-.024.256-.006.293.05.231.347.487.694.64 1.069.908 2.209 1.795 4.426 2.688 6.641.577 1.439 1.153 2.877 1.774 4.418z"/><path d="m88.9306524 63.6875555-1.317.538c-.49.183-.999.317-1.495.486-3.33 1.114-6.655 2.236-9.985 3.35-2.733.911-5.474 1.81-8.209 2.725-3.379 1.124-6.749 2.274-10.137 3.381-3.589 1.17-7.194 2.303-10.789 3.458-2.652.853-5.363 1.531-8.097 2.146-2.791.631-5.634 1.037-8.491 1.391-.252.03-.491.105-.803.179.16.189.242.369.363.402.307.086.645.165.955.143 2.29-.159 4.604-.191 6.804-.837.605-.175 1.231-.302 1.84-.459 2.453-.637 4.935-1.191 7.339-1.939 4.514-1.399 8.982-2.897 13.462-4.382 3.979-1.324 7.941-2.686 11.912-4.02 3.926-1.317 7.867-2.598 11.787-3.929 1.832-.621 3.662-1.247 5.491-1.875-.22-.242-.431-.495-.63-.758"/></g></svg>