<svg height="97" viewBox="0 0 160 97" width="160" xmlns="http://www.w3.org/2000/svg"><g fill="#fff" fill-rule="evenodd" transform="translate(.326988 .297049)"><path d="m53.9588117 34.8394514c-1.284.404-2.576.789-3.853 1.213-3.809 1.259-7.631 2.493-11.413 3.819-5.722 1.999-11.422 4.047-17.117 6.109-2.866 1.041-5.7 2.155-8.548 3.244-.466.175-.93.367-1.372.589-1.038.513-1.92299997 1.185-2.53999997 2.147-.23.358-.509.7-.817 1.001-.101.099-.404.12-.559.047-.138-.066-.293-.312-.27728396-.459.13428396-1.3.74628396-2.382 1.75128396-3.211.629-.524 1.35099997-.989 2.11799997-1.324 2.277-.994 4.578-1.956 6.908-2.854 4.338-1.665 8.683-3.31 13.055-4.897 3.389-1.23 6.816-2.367 10.229-3.535 3.087-1.052 6.169-2.106 9.266-3.119 3.291-1.077 6.595-2.12 9.901-3.167 2.924-.921 5.844-1.845 8.777-2.736 2.453-.749 4.926-1.444 7.389-2.162 1.93-.566 3.863-1.136 5.799-1.688 1.838-.526 3.685-1.037 5.527-1.555 2.232-.623 4.466-1.256 6.697-1.869 2.043-.562 4.095-1.097 6.1370003-1.655 2.139-.584 4.269-1.183 6.412-1.77 2.041-.558 4.084-1.11 6.132-1.664 2.19-.59 4.372-1.206 6.574-1.763 2.496-.63 5.005-1.235 7.526-1.782.885-.194 1.824-.226 2.745-.2456407.905-.0173593 1.722.3456407 2.456.8716407.379.268.722.574 1.141.91l1.017 1.461c.307.504.59 1.023.916 1.514 4.108 6.154 7.483 12.624 10.44 19.286 1.255 2.827 2.384 5.692 3.44 8.573.768 2.091 1.422 4.216 2.137 6.327.058.171.194.323.303.502l.059 1.566c-.595.663-1.105 1.229-1.612 1.798-.097.108-.243.218-.254.342-.069.786-.716 1.109-1.289 1.473-.54.338-1.109.643-1.697.909-3.728 1.662-7.585 3.061-11.452 4.447-3.863 1.385-7.729 2.762-11.615 4.106-4.022 1.389-8.071 2.735-12.107 4.1-3.61 1.219-7.217 2.45-10.83 3.661-3.6670003 1.222-7.3380003 2.42-11.0050003 3.641-3.664 1.218-7.318 2.459-10.985 3.674-3.143 1.044-6.293 2.063-9.44 3.099-3.194 1.045-6.381 2.111-9.58 3.148-2.724.882-5.453 1.747-8.188 2.592-3.174.977-6.351 1.937-9.537 2.872-2.611.765-5.263 1.432-8.036 1.643-2.345.177-4.713.207-7.065-.38-.495-.123-.995-.295-1.45-.523-.176-.087-.31-.394-.331-.606-.027-.277.246-.414.51-.421.351-.009.714.016 1.068.07 2.641.421 5.257.308 7.829-.042 1.661-.224 3.286-.644 4.881-1.105 3.197-.912 6.363-1.894 9.529-2.882 2.639-.823 5.259-1.684 7.883-2.537 2.627-.857 5.245-1.724 7.864-2.585 2.525-.833 5.053-1.664 7.577-2.503 3.14-1.041 6.281-2.091 9.42-3.138 3.09-1.034 6.178-2.074 9.268-3.107 2.995-1.006 5.994-2.01 8.9890003-3.015 3.088-1.04 6.174-2.082 9.265-3.126 2.991-1.008 5.986-2.013 8.972-3.036 3.322-1.132 6.646-2.258 9.949-3.428 3.68-1.309 7.343-2.654 11.006-4 1.264-.464 2.517-.965 3.763-1.472 1.936-.795 3.839-1.654 5.961-2.097.391-1.655.424-3.246-.198-4.894-1.083-2.88-2.044-5.798-3.161-8.665-1.386-3.564-2.967-7.065-4.742-10.579l-.401-.704c-.194-.576-.445-1.088-.918-1.587l-.447-1.054c-.133-.287-.275-.651-.465-.996-1.942-3.575-4.072-7.058-6.272-10.506-.697-1.089-1.513-2.046-3.017-2.315-2.051 1.028-4.393 1.496-6.663 2.145-2.131.61-4.265 1.207-6.404 1.79-2.091.571-4.192 1.12-6.285 1.678-.384.104-.764.225-1.082.322l-2.134.628c-.959.16-1.847.419-2.739.654-2.438.643-4.8710003 1.315-7.2960003 1.992-2.912.807-5.817 1.64-8.729 2.453-2.768.772-5.545 1.513-8.307 2.299-2.613.744-5.21 1.534-7.817 2.302-2.364.698-4.728 1.405-7.092 2.097-.971.284-1.855.688-2.668 1.275l-2.537.663c-.942.035-1.763.247-2.524.596z"/><path d="m25.2204117 93.4013514c-.184-.286-.269-.606-.289-.812-.029-.329.073-.641.297-.877.242-.264.621-.421 1.041-.435.412-.009.831.017 1.252.086 2.269.36 4.668.345 7.548-.048 1.676-.224 3.344-.671 4.753-1.073 3.112-.892 6.145-1.832 9.506-2.877 2.192-.685 4.376-1.397 6.557-2.11l1.316-.429c2.27-.74 4.541-1.489 6.809-2.235l1.053-.346c2.525-.833 5.05-1.667 7.571-2.503 3.142-1.044 6.281-2.09 9.42-3.137l29.9060003-10.053c2.197-.738 4.393-1.481 6.585-2.227l1.54-.528c2.805-.956 5.609-1.912 8.397-2.904 3.584-1.272 7.151-2.58 10.714-3.89l.281-.102c1.258-.463 2.501-.956 3.737-1.463l.798-.329c1.517-.63 3.077-1.281 4.774-1.694.278-1.457.19-2.713-.267-3.926-.488-1.29-.946-2.585-1.407-3.882-.565-1.6-1.131-3.195-1.75-4.781-1.363-3.492-2.903-6.925-4.707-10.494l-.378-.664c-.032-.051-.054-.102-.072-.159-.185-.55-.394-.913-.716-1.25-.077-.082-.132-.174-.176-.275l-.57-1.319c-.09-.207-.186-.433-.303-.654-1.685-3.094-3.669-6.417-6.243-10.45-.003-.002-.007-.005-.004-.008-.591-.923-1.158-1.555-2.074-1.807-1.56.732-3.255 1.182-4.899 1.615-.539.147-1.079.288-1.617.44-2.134.613-4.274 1.212-6.416 1.799-1.318.356-2.638.707-3.958 1.057l-2.332.622c-.26.07-.515.148-.75.219l-2.446.724c-.849.147-1.58.344-2.284.533l-.479.125c-2.435.645-4.859 1.313-7.2840003 1.99-1.512.419-3.024.844-4.534 1.275-1.397.39-2.793.786-4.195 1.177-1.123.315-2.254.625-3.381.931-1.64.451-3.284.899-4.918 1.364-1.824.521-3.638 1.064-5.454 1.604l-4.617 1.368c-1.61.481-3.22.956-4.835 1.429-.917.265-1.702.643-2.402 1.144-.084.065-.185.109-.289.136l-2.537.663c-.067.016-.135.027-.204.031-.767.025-1.478.194-2.172.511-.039.02-.079.034-.116.045l-4.918 1.485c-.88.269-1.759.544-2.629.83l-2.733.902c-2.848.937-5.798 1.906-8.669 2.909-4.92 1.723-10.194 3.604-17.104 6.112-2.093.757-4.163 1.554-6.236 2.35l-2.301.886c-.438.169-.879.351-1.297.559-1.005.494-1.726 1.103-2.20899997 1.855-.267.415-.579.8-.932 1.137-.407.397-1.149.414-1.599.2-.502-.235-.873-.842-.822-1.351.156-1.478.86-2.773 2.037-3.746.737-.608 1.51799997-1.095 2.32099997-1.446 2.548-1.112 4.822-2.047 6.945-2.865 5.106-1.963 9.262-3.522 13.072-4.906 2.608-.95 5.283-1.856 7.868-2.735l2.746-.929c2.964-1.012 5.927-2.023 8.909-3.002 2.923-.958 5.863-1.889 8.801-2.817l1.419-.446c2.817-.892 5.64-1.784 8.475-2.643 1.726-.525 3.462-1.029 5.196-1.528l3.81-1.111c1.397-.405 2.796-.814 4.196-1.217 1.367-.39 2.734-.774 4.103-1.153l3.237-.905c1.632-.461 3.262-.919 4.896-1.369 1.081-.297 2.167-.586 3.255-.878.961-.255 1.919-.512 2.8800003-.773 1.124-.309 2.25-.621 3.377-.933l3.031-.84c1.713-.468 3.427-.93 5.143-1.396l2.887-.784c1.563-.426 3.126-.852 4.701-1.251 2.932-.738 5.333-1.309 7.556-1.791.954-.205 1.928-.243 2.924-.262 1.014-.022 2.045.332 3.049 1.054.276.194.534.407.811.638l.374.306c.073.058.137.121.185.194l1.02 1.463.328.549c.194.332.384.662.597.982 3.806 5.703 7.245 12.054 10.516 19.423 1.155 2.598 2.287 5.418 3.462 8.623.505 1.377.961 2.767 1.416 4.157.239.727.479 1.461.728 2.19.017.027.05.069.08.115.047.066.094.133.139.209.081.13.122.274.126.419l.059616 1.566c.007384.208-.062616.404-.202616.56l-1.613 1.792c-.005.007-.047.055-.078.085-.172.971-.924 1.437-1.482 1.778l-.157.099c-.572.363-1.18.687-1.802.966-3.652 1.632-7.376 2.992-11.514 4.472-3.868 1.386-7.737 2.766-11.623 4.11-2.793.963-5.594 1.906-8.395 2.849l-7.165 2.418c-2.46.836-4.924 1.67-7.392 2.495-2.0130003.673-4.0360003 1.34-6.0550003 2.009-1.65.541-3.298 1.087-4.946 1.634-1.677.558-3.358 1.124-5.031 1.684-1.983.668-3.97 1.334-5.957 1.993-1.96.648-3.921 1.29-5.885 1.93l-7.039 2.315c-2.035.669-4.068 1.344-6.102 2.003-2.73.884-5.461 1.752-8.202 2.598-3.177.975-6.357 1.939-9.548 2.874-2.396.702-5.251 1.451-8.222 1.677-2.187.161-4.769.246-7.38-.408-.608-.153-1.168-.355-1.654-.599-.25-.126-.43-.312-.562-.517zm123.9020003-38.265c-1.475.378-2.848.952-4.298 1.55l-.806.334c-1.256.514-2.518 1.02-3.799 1.488l-.277.103c-3.573 1.31-7.143 2.621-10.735 3.898-2.793.993-5.604 1.95-8.416 2.911l-1.541.522c-2.195.749-4.391 1.493-6.59 2.234l-29.9130003 10.048c-3.138 1.053-6.277 2.099-9.419 3.144-2.527.837-5.052 1.67-7.58 2.501l-1.05.348c-2.268.746-4.539 1.496-6.814 2.237l-1.317.429c-2.186.714-4.379 1.43-6.58 2.114-3.37 1.05-6.416 1.996-9.546 2.892-1.472.42-3.219.886-5.01 1.129-1.183.163-2.291.265-3.35.302.868-.003 1.701-.05 2.486-.108 2.8-.214 5.536-.931 7.842-1.611 3.183-.931 6.355-1.89 9.523-2.866 2.733-.842 5.458-1.709 8.174-2.586 2.033-.66 4.064-1.331 6.093-1.999l7.048-2.319c1.958-.639 3.922-1.279 5.876-1.926 1.988-.659 3.969-1.324 5.952-1.991 1.675-.565 3.354-1.126 5.033-1.688 1.648-.547 3.3-1.091 4.952-1.635 2.017-.666 4.034-1.331 6.0520003-2.006 2.463-.824 4.921-1.656 7.381-2.492l7.167-2.422c2.799-.94 5.594-1.881 8.382-2.843 3.879-1.343 7.746-2.72 11.605-4.101 4.104-1.473 7.794-2.82 11.387-4.425.548-.243 1.084-.529 1.586-.848l.17-.103c.127-.083.238-.151.332-.215zm-20.689-42.593c-.174.025-.348.057-.52.094-2.2.477-4.581 1.042-7.496 1.776-1.56.392-3.112.816-4.663 1.24l-2.893.785c-1.713.463-3.424.927-5.134 1.392l-3.028.842c-1.13.31-2.256.622-3.383.934-.964.259-1.9280003.517-2.8920003.776-1.082.291-2.162.579-3.243.876-1.628.448-3.258.906-4.885 1.36l-3.239.909c-1.366.38-2.731.761-4.091 1.15-1.398.4-2.792.808-4.185 1.215l-3.816 1.112c-1.728.498-3.456.997-5.176 1.521-2.824.857-5.641 1.748-8.452 2.638l-1.419.447c-2.932.926-5.866 1.856-8.783 2.813-2.974.974-5.935 1.982-8.89 2.989l-2.751.936c-2.577.874-5.24 1.778-7.831 2.719-3.799 1.381-7.941 2.934-13.039 4.893-1.931.743-3.986 1.586-6.264 2.574.096-.037.192-.074.286-.108l2.295-.885c2.082-.8 4.165-1.604 6.266-2.365 6.92-2.507 12.199-4.395 17.128-6.117 2.885-1.008 5.841-1.979 8.697-2.921l2.73-.898c.881-.294 1.775-.569 2.663-.843l1.203-.373c.002-.003.008-.004.011-.002l3.661-1.099c.866-.385 1.754-.598 2.708-.644l2.286-.598c.826-.568 1.744-1 2.798-1.31 1.612-.469 3.219-.947 4.83-1.422l4.611-1.367c1.821-.548 3.644-1.089 5.474-1.611 1.646-.467 3.291-.919 4.937-1.371 1.128-.306 2.253-.615 3.373-.926 1.399-.394 2.793-.786 4.192-1.18 1.511-.425 3.025-.854 4.54-1.277 2.431-.677 4.8630003-1.35 7.3070003-1.993l.47-.127c.745-.197 1.519-.406 2.352-.544l2.312-.691c.258-.081.533-.166.816-.241l2.342-.62c1.313-.35 2.627-.699 3.94-1.054 2.136-.586 4.268-1.18 6.395-1.792.547-.157 1.101-.304 1.653-.447 1.332-.353 2.608-.692 3.797-1.165zm13.479 16.453.36.631c1.855 3.659 3.417 7.143 4.798 10.692.625 1.6 1.197 3.21 1.771 4.825.453 1.287.913 2.573 1.392 3.852.484 1.272.64 2.563.476 3.985l.683-.756-.039-1.005c-.094-.133-.196-.298-.265-.506-.249-.735-.493-1.471-.737-2.207-.448-1.37-.897-2.74-1.395-4.097-1.162-3.17-2.282-5.958-3.418-8.522-3.228-7.275-6.613-13.539-10.368-19.152-.235-.355-.442-.711-.657-1.073l-.28-.476-.91-1.303-.286-.232c-.132-.113-.259-.219-.386-.319.439.436.803.932 1.095 1.406 2.599 4.071 4.601 7.427 6.306 10.56.144.263.266.543.374.792l.513 1.19c.541.61.803 1.226.973 1.715z"/><path d="m15.7929117 91.5990514c-.88-.284-1.569-.506-2.255-.731-.294-.1-.595-.195-.871-.329-.33-.159-.534-.574-.385-.881.18-.382.431-.736.684-1.084.467-.652 1.069-1.219 1.4-1.905-.198-.371-.491-.282-.721-.355-.945-.287-1.896-.547-2.813-.891-.591-.223-.756-.683-.486-1.207.239-.464.558-.896.868-1.322.334-.462.703-.9 1.121-1.427-.345-.19-.616-.315-.855-.474-.605-.4-1.236-.776-1.77799997-1.24-.737-.619-.805-1.202-.301-1.94.354-.514.75999997-.994 1.20799997-1.572-.264-.121-.469-.262-.68799997-.307-.82-.168-1.597-.464-2.298-.917-.453-.293-.643-.684-.471-1.147.183-.486.454-.944.716-1.398.209-.357.465-.688.751-1.1-1.156-.357-2.185-.67-3.215-.988-.197-.061-.403-.102-.595-.179-.388-.148-.566-.541-.337-.824.361-.449.76-.872 1.16-1.289.461-.483 1.021-.89 1.385-1.585-.452-.205-.863-.379-1.264-.576-.421-.205-.834-.421-1.241-.647-.81-.45-.919-.796-.45-1.528.282-.445.62-.858.925-1.293.109-.156.197-.325.334-.553-.417-.157-.788-.308-1.164-.443-.489-.18-.991-.323-1.468-.52-.544-.226-.682-.618-.415-1.064.123-.206.267-.399.421-.585.149-.185.328-.354.504-.541-.151-.39-.559-.424-.845-.595-.674-.41-1.263-.895-1.695-1.539-.299-.448-.293-.859.126-1.153.356-.243.76-.461 1.183-.593 1.388-.438 2.793-.832 4.192-1.241.144-.041.294-.083.439-.118 1.219-.291 1.497-.176 2.117.893.964 1.653 1.69599997 3.395 2.40299997 5.146 2.281 5.617 4.514 11.253 6.841 16.855 1.831 4.409 3.938 8.723 6.163 12.984.598 1.145.822 2.32 1 3.519.03.197-.13.491-.304.598-.327.202-.719.341-1.106.442-1.269.334-2.546.637-3.821.951-.786.19-1.577.371-2.354.578-.69.182-1.377.307-2.117.193-.83-.124-1.184-.604-.911-1.345.181-.492.443-.952.67-1.429.182-.385.361-.767.613-1.304m7.853.536c-.395-.578-.867-1.132-1.169-1.75-1.657-3.364-3.348-6.715-4.876-10.12-1.468-3.274-2.801-6.599-4.116-9.922-1.04-2.632-1.971-5.299-2.942-7.951-.62499997-1.721-1.18799997-3.467-1.86799997-5.173-.318-.807-.553-1.694-1.211-2.271-1.554.473-3.022.917-4.524 1.374.131.326.376.424.606.527.425.198.867.357 1.283.569.718.368.873.978.413 1.583-.19.254-.425.477-.73.811.322.088.503.144.687.186.453.104.924.151 1.358.314.843.309 1.155 1.071.76 1.791-.161.288-.4.539-.617.795-.374.439-.758.868-1.228 1.405.524.082.914.135 1.301.2.608.108 1.235.171 1.827.349 1.03.303 1.33 1.143.717 1.94-.26.343-.59.64-.904.942-.478.457-.967.901-1.537 1.428.35.036.557.038.757.08.707.158 1.429.275 2.112.513.90699997.312 1.24399997 1.121.82099997 1.898-.202.378-.509.7-.78199997 1.035-.334.4-.689.787-1.029 1.174.103.073.141.124.187.13.662.102 1.33099997.179 1.99099997.3.453.08.923.166 1.343.35.645.279.862.911.536 1.474-.19.33-.468.61-.709.91-.533.669-1.255 1.201-1.733 2.023.363.095.653.192.952.245.608.107 1.227.161 1.834.292 1.806.401 2.149 1.285.988 2.543-.522.569-1.087 1.104-1.62 1.666-.112.122-.156.301-.266.527.325.045.522.075.724.093.819.086 1.649.113 2.458.268 1.429.276 1.854 1.316.987 2.37-.486.598-1.051 1.133-1.569 1.71-.174.193-.305.419-.522.721.498.074.851.123 1.204.186.359.063.723.103 1.06.221 1.141.387 1.456 1.07.956 2.044-.178.343-.411.654-.607.984-.168.283-.324.569-.489.855.099.056.145.102.17.094 2.265-.521 4.523-1.046 6.783-1.574.084-.02.15-.103.233-.159"/><path d="m14.1465117 95.4201514c-.157-.242-.292-.656-.072-1.25.131-.349.299-.683.469-1.021.071-.145.145-.293.219-.442l.403-.861-.283-.093c-.533-.173-1.004-.326-1.476-.484-.361-.12-.657-.216-.929-.348-.572-.275-.859-.954-.616-1.461.207-.424.489-.824.718-1.143.175-.238.363-.467.552-.696.237-.288.466-.561.646-.846-.084-.011-.172-.024-.25-.051l-.707-.209c-.705-.212-1.435-.426-2.139-.694-.506-.191-.72799997-.496-.82599997-.714-.101-.235-.173-.613.078-1.094.24699997-.484.56699997-.925.87499997-1.348.255-.352.507-.66.777-.996l.066-.083c-.153-.082-.29-.159-.425-.244l-.413-.271c-.474-.307-.96399997-.629-1.40899997-1.002-.9-.764-1.026-1.584-.392-2.504.245-.358.518-.698.81-1.066l.091-.122c-.02-.008-.045-.015-.064-.017-.913-.19-1.746-.523-2.471-.993-.656-.423-.897-1.025-.662-1.659.188-.493.453-.95.708-1.393.165-.276.316-.494.471-.72l-2.815-.857c-.141-.039-.286-.08-.424-.131-.339-.131-.602-.398-.702-.703-.092-.279-.037-.567.146-.795.367-.459.777-.89 1.185-1.318.123-.131.259-.258.391-.388.246-.231.483-.457.686-.723-.279-.12-.544-.241-.803-.369-.424-.207-.849-.43-1.266-.663-.386-.213-.797-.492-.926-.929-.131-.442.076-.857.296-1.202.184-.282.388-.557.591-.832.115-.156.232-.316.347-.473.021-.032.042-.063.066-.098-.221-.087-.435-.169-.651-.248-.18-.064-.359-.123-.538-.182-.323-.109-.642-.215-.956-.345-.495-.208-.697-.506-.778-.717-.082-.212-.123-.554.126-.971.132-.221.291-.429.455-.628.081-.099.165-.194.259-.289-.036-.014-.076-.031-.119-.049-.119-.049-.239-.099-.343-.163-.812-.492-1.417-1.044-1.845-1.685-.427-.66-.367-1.31.22-1.719.415-.286.865-.513 1.303-.651 1.015-.321 2.045-.617 3.071-.915l1.132-.328c.152-.046.302-.088.458-.125 1.431-.342 1.927-.143 2.652 1.118.98499997 1.698 1.74499997 3.504 2.43299997 5.207.746 1.837 1.487 3.671 2.223 5.507 1.528 3.785 3.05 7.571 4.617 11.342 1.633 3.931 3.589 8.048 6.146 12.948.645 1.237.869 2.487 1.044 3.659.059.389-.208.819-.492.995-.324.204-.727.366-1.228.493-.947.249-1.9.484-2.852.716l-1.774.432c-.52.124-1.033.248-1.544.383-.661.177-1.451.334-2.313.204-.714-.107-1.056-.422-1.219-.672-.003-.003-.004-.009-.008-.011m2.033-4.028c.011.013.021.03.026.044.06.115.061.243.007.354l-.61 1.307c-.072.154-.154.307-.23.459-.155.307-.31.615-.431.94-.048.125-.11.362-.017.511.078.118.269.205.545.247.683.101 1.328-.03 1.92-.187.52-.14 1.043-.262 1.568-.388l1.771-.434c.949-.228 1.894-.458 2.836-.707.416-.107.737-.237.986-.39.048-.034.115-.157.12-.209-.165-1.089-.373-2.258-.957-3.373-2.571-4.924-4.534-9.061-6.178-13.02-1.568-3.771-3.093-7.56-4.619-11.348-.739-1.838-1.477-3.671-2.223-5.507-.676-1.675-1.41999997-3.445-2.37699997-5.094-.518-.879-.569-.902-1.582-.661-.139.033-.277.073-.415.112l-1.138.33c-1.018.294-2.038.591-3.048.91-.352.11-.719.295-1.061.534-.115.08-.28.228-.03.583.358.534.848.978 1.546 1.398.061.036.131.062.201.094.26.103.658.267.837.727.057.15.029.314-.076.426l-.171.18c-.114.116-.223.226-.321.343-.139.171-.268.348-.383.535-.063.11-.093.207-.069.263.022.051.113.127.248.182.289.122.585.218.884.317.186.063.376.129.561.192.266.096.526.199.804.309l.371.141c.125.049.223.145.275.265.045.122.038.254-.029.361l-.119.21c-.082.137-.152.258-.231.368-.116.166-.235.329-.358.491-.193.257-.381.516-.556.785-.22.344-.226.483-.208.54.016.051.098.172.48.382.399.221.807.438 1.218.636.27.135.549.256.842.386l.408.186c.114.051.205.142.249.258.043.11.037.233-.015.334-.3.571-.717.967-1.085 1.319-.123.116-.248.235-.364.355-.396.41-.784.825-1.141 1.267.001.076.04.123.12.156.108.042.217.069.329.098l.235.066 3.212.985c.142.044.259.143.307.276.056.129.042.271-.037.381l-.267.385c-.171.241-.33.464-.466.697-.279.479-.526.902-.689 1.335-.065.18-.086.394.28.629.631.406 1.328.684 2.13.85.21799997.045.39799997.14.57499997.232.068.035.139.073.22.111.127.06.224.166.258.29.04.128.015.258-.065.362l-.415.529c-.282.354-.542.683-.77499997 1.024-.399.575-.351.912.204 1.379.39499997.335.83899997.627 1.30699997.929l.423.278c.149.094.306.179.488.27l.333.177c.12.065.205.172.235.294.032.128.004.251-.074.346l-.382.48c-.263.326-.505.627-.732.936-.313.43-.613.843-.833 1.27-.081.158-.104.3-.061.395.044.1.176.168.278.206.671.256 1.382.467 2.073.67l.711.211c.312.042.74.084 1.011.59.063.118.068.254.01.371-.229.487-.58.906-.918 1.314-.177.211-.357.426-.516.65-.272.376-.486.689-.65 1.026-.037.077.037.248.157.303.235.111.489.194.743.278.538.182 1.009.334 1.538.506l.786.251c.107.036.197.106.256.201m-.066 2.588c-.091-.137-.127-.303-.061-.426l.154-.267c.109-.201.224-.403.343-.598.078-.13.158-.259.243-.385.124-.186.245-.374.347-.574.189-.366.236-.664.136-.878-.103-.226-.373-.406-.81-.556-.235-.081-.488-.119-.74-.16l-.245-.043c-.231-.042-.459-.073-.731-.113l-.461-.069c-.157-.024-.295-.121-.364-.259-.068-.142-.06-.299.026-.419l.188-.274c.127-.19.232-.347.362-.489.202-.225.416-.448.63-.669.32-.334.639-.669.928-1.024.323-.392.434-.779.309-1.071-.121-.289-.476-.501-.994-.598-.525-.103-1.054-.147-1.616-.193-.269-.022-.534-.042-.801-.069-.133-.013-.266-.035-.434-.056l-.303-.04c-.149-.019-.271-.095-.359-.23-.076-.127-.084-.275-.021-.4.035-.068.062-.131.086-.19.063-.147.124-.299.252-.43.244-.259.497-.516.75-.773.291-.292.585-.587.865-.892.447-.488.644-.904.543-1.169-.106-.274-.553-.501-1.259-.659-.35-.076-.697-.126-1.05-.174-.256-.034-.51-.072-.765-.115-.217-.039-.427-.098-.665-.166l-.327-.087c-.138-.037-.259-.137-.31899997-.259-.059-.125-.056-.265.015-.38.32099997-.556.73099997-.972 1.12999997-1.38.223-.226.443-.449.637-.695.077-.091.153-.182.229-.273.164-.185.324-.372.444-.581.102-.175.125-.362.065-.515-.057-.149-.185-.27-.368-.352-.366-.158-.805-.238-1.23-.315-.42-.078-.842-.136-1.26699997-.192l-.711-.105c-.087-.013-.267-.108-.336-.164-.103-.074-.206-.208-.223-.327-.021-.12-.022-.263.058-.351l.303-.34c.243-.274.487-.547.72-.827l.17-.201c.219-.26.42599997-.502.56799997-.767.146-.272.173-.548.07-.78-.096-.221-.31299997-.397-.61699997-.504-.474-.164-.972-.269-1.498-.377l-.559-.12c-.107-.021-.218-.029-.358-.041l-.34-.03c-.18-.019-.335-.128-.402-.294-.065-.16-.027-.338.099-.451l.531-.492c.353-.322.676-.624.996-.927l.127-.123c.274-.258.529-.503.737-.776.215-.276.284-.555.201-.778-.086-.214-.317-.384-.659-.486-.394-.116-.812-.182-1.248-.251l-.522-.084c-.254-.044-.508-.082-.803-.127l-.485-.07c-.166-.025-.309-.13-.375-.281-.063-.149-.038-.315.064-.43l.422-.488c.288-.325.546-.619.8-.916l.125-.15c.174-.198.337-.383.446-.584.133-.236.157-.484.07-.688-.091-.213-.288-.381-.568-.486-.245-.088-.523-.143-.813-.194-.164-.029-.322-.058-.478-.097-.128-.029-.253-.062-.414-.109l-.293-.078c-.158-.045-.28-.158-.333-.299-.05-.145-.019-.297.08-.408l.288-.31c.161-.172.299-.318.417-.472.109-.14.223-.348.168-.547-.051-.181-.246-.322-.402-.401-.241-.125-.492-.227-.741-.333-.175-.071-.35-.143-.521-.221-.281-.127-.658-.298-.855-.784-.043-.11-.04-.23.01-.334.052-.102.14-.18.258-.213l4.522-1.37c.158-.046.335-.009.462.106.633.555.912 1.299 1.18 2.021l.159.421c.438 1.099.832 2.225 1.21199997 3.31.215.626.435 1.254.662 1.878l.715 1.974c.71 1.965 1.44 3.991 2.222 5.963 1.268 3.211 2.628 6.615 4.106 9.906 1.26 2.804 2.657 5.624 4.005 8.351l.865 1.755c.193.387.457.751.737 1.137.134.186.271.368.397.559.133.211.09.435-.091.568l-.288-.35.244.386c-.07.06-.179.155-.342.193-2.26.528-4.521 1.051-6.782 1.573-.126.028-.344-.032-.456-.107-.074-.049-.143-.12-.195-.201m1.905-3.61c.035.054.066.115.096.175.21.46.161.996-.145 1.598-.113.223-.254.433-.391.646-.077.116-.153.237-.227.355-.025.045-.051.083-.073.124 1.899-.435 3.796-.876 5.696-1.321-.033-.042-.06-.085-.092-.127-.296-.401-.597-.815-.821-1.269l-.866-1.755c-1.352-2.735-2.75-5.561-4.017-8.385-1.484-3.305-2.85-6.723-4.122-9.936-.787-1.987-1.52-4.024-2.228-5.993l-.717-1.97c-.22799997-.63-.44699997-1.258-.66999997-1.888-.379-1.096-.761-2.193-1.195-3.274l-.167-.441c-.204-.552-.399-1.073-.735-1.465l-3.518 1.067c.14.058.262.109.388.163.279.115.551.231.815.367.593.305.809.703.888.979.078.285.088.733-.296 1.247-.082.108-.176.218-.279.326.126.024.253.047.376.074.322.058.656.119.985.242.532.199.934.553 1.12 1.003.193.448.155.945-.097 1.405-.15.27-.348.498-.541.719l-.125.14c-.225.27-.458.535-.714.826.17.027.326.051.487.077l.499.08c.451.068.919.143 1.381.279.639.189 1.092.567 1.283 1.055.19699997.502.08499997 1.056-.306 1.565-.244.319-.535.596-.816.865l-.128.122c-.281.269-.565.535-.869.815l.381.076c.536.115 1.088.231 1.623.416.55799997.19.97999997.553 1.18799997 1.016.208.469.175 1.005-.095 1.5-.179.336-.426.622-.663.9l-.161.197c-.19499997.23-.39299997.458-.59399997.683l.134.019c.43199997.06.87299997.122 1.30399997.197.483.089.981.179 1.451.386.427.189.743.497.887.882.15.389.108.818-.113 1.208-.151.264-.344.485-.529.701l-.217.256c-.208.266-.446.508-.692.755-.242.248-.477.487-.686.753.096.024.188.045.283.062.246.043.49.079.731.113.381.052.756.106 1.126.19 1.074.236 1.735.652 1.958 1.243.224.591-.013 1.264-.698 2.009-.284.311-.583.614-.885.914-.21.215-.425.431-.631.649.009.001.015 0 .028.003.258.025.517.046.777.068.562.046 1.146.091 1.724.204.845.163 1.452.575 1.705 1.16.258.593.11 1.27-.413 1.909-.31.371-.641.723-.976 1.072-.207.212-.413.429-.612.651-.033.034-.065.074-.096.113.169.028.326.051.484.08l.233.04c.295.05.599.096.903.203.607.207 1.039.501 1.282.882"/><path d="m152.257512 50.9990514c1.071-.289 2.087-.543 2.953-1.171-.374-.275-.723-.503-1.023-.775-.468-.424-.582-.936-.339-1.474.155-.338.346-.662.552-1.061-.244-.052-.435-.108-.631-.133-.255-.029-.518-.007-.769-.057-2.115-.425-2.601-2.043-1.741-3.253.167-.234.335-.472.477-.721.134-.231.232-.484.344-.719-.627-.186-1.198-.288-1.708-.518-1.205-.536-1.635-1.599-1.093-2.683.254-.509.612-.97.958-1.434.225-.306.507-.569.854-.951-.45-.093-.784-.163-1.123-.232-.506-.1-1.029-.146-1.515-.313-.893-.303-1.398-1.005-1.289-1.82.044-.362.243-.721.445-1.031.278-.423.632-.801.99-1.246-.575-.065-1.036-.089-1.491-.175-.348-.07-.711-.181-1.024-.349-.964-.508-1.293-1.306-.905-2.228.163-.388.444-.733.68-1.093.2-.307.411-.608.604-.889-.1-.108-.132-.174-.169-.179-.304-.031-.611-.073-.918-.076-2.414-.031-3.13-1.539-2.02-3.155.267-.385.475-.809.761-1.313-.33-.007-.52-.012-.71-.023-.512-.023-1.039.021-1.533-.096-1.175-.284-1.613-1.352-.97-2.276.189-.275.44-.513.667-.762.22-.238.448-.466.658-.681-.254-.372-.593-.305-.886-.374-.6-.142-1.227-.236-1.806-.456-1.188-.444-1.536-1.245-1.116-2.344.089-.239.403-.435.091-.796-1.032.163-2.085.326-3.138.499-.095.013-.183.076-.353.156l-1.02-1.464c.772-.183 1.555-.375 2.342-.544.842-.183 1.681-.383 2.54-.493.858-.107 1.296.247 1.315 1.061.018.717-.087 1.428-.146 2.26.272.345.846.236 1.331.383.839.256 1.707.436 2.541.714.596.201.786.668.512 1.184-.199.374-.492.706-.764 1.037-.276.337-.585.648-.87.975-.056.069-.066.175-.104.27.824.8 2.082.413 2.964 1.028.116 1.284-.997 2.108-1.056 3.326.499.247 1.008.253 1.507.318.565.073 1.129.155 1.68.301.592.147.867.615.65 1.129-.18.437-.471.826-.727 1.233-.354.56-.836 1.054-.996 1.779.842.507 1.753.731 2.628 1.031 1.022.344 1.208.772.673 1.611-.21.321-.478.609-.695.926-.192.272-.353.565-.573.925.324.206.596.429.908.561.669.29 1.367.513 2.032.8.599.264.76.63.514 1.196-.19.436-.442.851-.698 1.258-.331.524-.681 1.041-.81 1.751.25.157.49.328.75.471.501.274 1.023.511 1.523.794.702.399.847.759.535 1.469-.305.699-.669 1.373-1.043 2.122.28.203.492.44.758.527.737.249 1.485.511 2.243.622.648.099.951.625.726 1.19-.106.264-.281.502-.42.749-.111.204-.22.405-.381.699.5.207.932.359 1.342.557.468.226.941.451 1.356.749.447.324.455.943.037 1.272-.266.208-.582.362-.898.501-1.284.556-2.602 1.025-4.014 1.278-.346.063-.685.161-.897.212z"/><path d="m151.925212 52.7724514c-.043-.064-.064-.139-.067-.218l-.059-1.566c-.007-.187.118-.352.311-.405l.162-.044c.771-.205 1.506-.403 2.152-.748-.193-.144-.378-.283-.545-.435-.615-.553-.776-1.254-.454-1.962.085-.196.185-.383.292-.581-.085-.01-.173-.014-.262-.018-.177-.001-.355-.008-.527-.047-1.133-.225-1.957-.791-2.327-1.586-.346-.743-.243-1.618.272-2.344.16-.223.321-.449.457-.683.042-.079.082-.153.119-.23-.02-.009-.042-.013-.059-.019-.419-.108-.814-.209-1.195-.383-.707-.315-1.209-.793-1.449-1.39-.243-.593-.201-1.24.115-1.88.244-.486.573-.926.887-1.35l.105-.142c.114-.147.233-.287.371-.433l-.327-.065c-.155-.033-.31-.06-.466-.084-.365-.061-.743-.126-1.111-.251-1.109-.381-1.745-1.282-1.612-2.299.06-.462.301-.884.51-1.196.148-.23.318-.447.5-.665-.236-.026-.461-.054-.679-.099-.446-.085-.838-.22-1.164-.392-1.176-.623-1.592-1.662-1.124-2.78.134-.321.328-.597.518-.866l.198-.289c.099-.156.2-.307.302-.452-.124-.012-.25-.02-.372-.02-1.311-.019-2.286-.412-2.742-1.209-.441-.736-.328-1.695.314-2.625.142-.205.263-.423.395-.659-.134-.004-.271-.004-.406-.008-.38 0-.773-.004-1.172-.098-.699-.168-1.239-.59-1.489-1.148-.257-.572-.178-1.229.219-1.801.162-.226.355-.432.548-.638l.156-.164c.095-.104.191-.202.289-.304-.084-.011-.168-.021-.251-.041-.166-.04-.337-.073-.505-.11-.448-.096-.911-.192-1.361-.361-.693-.261-1.167-.638-1.41-1.131-.256-.505-.254-1.107.006-1.785.014-.037.032-.071.052-.108l-.021.001c-.84.134-1.693.264-2.543.406l-.235.116c-.206.096-.467.023-.599-.167l-1.02-1.463c-.081-.114-.101-.259-.053-.384.047-.131.16-.224.299-.257l.709-.166c.543-.129 1.088-.261 1.642-.378l.437-.099c.693-.15 1.412-.308 2.142-.398.567-.073 1.018.025 1.347.291.327.264.499.673.511 1.209.011.514-.034 1.022-.083 1.552-.013.163-.029.331-.046.501.099.026.236.042.357.057.203.023.414.048.614.106.357.111.719.206 1.078.299.497.129.991.262 1.477.424.527.175.762.484.868.712.15.329.121.715-.074 1.082-.19.36-.448.669-.695.971l-.112.138c-.162.196-.335.379-.507.569-.087.099-.177.196-.261.292.292.17.658.222 1.065.281.507.075 1.084.161 1.589.514.107.081.183.203.192.326.073.809-.267 1.455-.564 2.021-.188.357-.367.694-.445 1.052.232.064.48.093.736.122l.307.033c.524.066 1.141.159 1.74.311.423.11.763.337.939.673.179.317.193.692.042 1.053-.152.364-.367.693-.577 1.008l-.181.285c-.099.157-.209.307-.316.459-.21.29-.412.571-.537.894.518.265 1.061.439 1.635.62.195.065.389.123.582.192.459.154 1.017.405 1.215.898.206.503-.06 1.015-.28 1.359-.123.192-.263.372-.407.55-.1.126-.202.256-.294.386-.123.177-.23.359-.353.566.169.119.322.216.472.28.326.142.655.265.983.388.352.134.706.264 1.052.415.829.361 1.103.99.765 1.769-.205.466-.471.902-.725 1.305l-.064.104c-.252.4-.496.78-.626 1.24.143.096.289.189.444.277.217.114.437.226.66.34.291.148.585.294.866.457.912.518 1.138 1.12.748 2.015-.218.494-.464.974-.717 1.474l-.185.369c.12.1.236.193.322.224.781.265 1.478.497 2.155.599.445.064.805.284 1.019.616.217.343.253.767.09 1.171-.076.197-.188.38-.301.564-.046.076-.094.155-.139.231l-.152.28c.32.122.617.239.899.377.505.246.989.478 1.429.793.316.231.512.576.531.943.026.393-.142.757-.457 1.002-.315.252-.699.431-.993.56-1.537.661-2.843 1.082-4.111 1.309-.241.042-.475.104-.663.15l-.214.055c-.134.033-.282.005-.397-.082-.052-.035-.094-.079-.126-.13m.802-1.442.025.676c.116-.029.235-.056.355-.077 1.195-.216 2.438-.612 3.908-1.248.265-.117.566-.256.805-.446.105-.082.16-.202.153-.329-.003-.063-.026-.18-.15-.267-.368-.262-.812-.477-1.242-.684-.31-.151-.591-.262-.897-.381l-.456-.183c-.119-.049-.217-.145-.264-.257-.048-.118-.039-.245.016-.35l.383-.702c.049-.089.102-.176.155-.262.09-.143.18-.285.24-.443.065-.159.063-.308-.003-.413-.078-.118-.227-.162-.337-.179-.764-.116-1.503-.361-2.221-.607-.374-.124-.572-.291-.768-.453-.072-.058-.148-.119-.23-.179-.178-.129-.241-.353-.149-.536l.34-.675c.246-.49.481-.956.694-1.433.219-.503.172-.631-.335-.919-.27-.15-.55-.292-.825-.435-.233-.115-.46-.23-.685-.356-.194-.104-.375-.22-.554-.34l-.227-.146c-.156-.1-.24-.277-.211-.451.133-.738.476-1.274.802-1.791l.062-.101c.241-.376.486-.781.67-1.2.163-.373.083-.473-.26-.62-.329-.145-.665-.273-1.003-.397-.342-.133-.689-.258-1.026-.407-.256-.11-.48-.26-.695-.409-.091-.061-.186-.124-.287-.186-.211-.131-.275-.392-.159-.589l.201-.331c.133-.221.251-.421.386-.615.102-.145.213-.289.325-.427.127-.158.251-.314.36-.485.26-.404.24-.564.222-.612-.023-.05-.125-.185-.634-.357-.186-.064-.377-.126-.566-.186-.71-.226-1.447-.46-2.159-.89-.167-.106-.255-.293-.214-.468.134-.61.464-1.074.757-1.482.103-.139.202-.28.293-.423l.191-.293c.195-.301.379-.584.506-.879.036-.093.068-.224.007-.33-.043-.095-.17-.17-.33-.211-.545-.141-1.099-.222-1.617-.289l-.289-.031c-.417-.045-.895-.096-1.376-.332-.169-.082-.269-.25-.264-.424.031-.654.306-1.18.576-1.69.236-.451.463-.882.483-1.36-.274-.128-.612-.176-.966-.231-.609-.092-1.303-.191-1.865-.739-.129-.126-.169-.3-.112-.455.043-.148.076-.273.175-.39.126-.144.256-.285.386-.426.16-.178.325-.357.477-.539l.115-.142c.233-.28.451-.545.606-.831.078-.147.095-.272.056-.364-.048-.103-.182-.167-.29-.204-.465-.154-.94-.278-1.411-.4-.375-.099-.747-.195-1.117-.31-.139-.042-.287-.056-.44-.071-.367-.043-.83-.093-1.133-.474-.07-.092-.103-.195-.093-.3.017-.262.04-.516.063-.764.046-.508.089-.99.078-1.459-.006-.264-.068-.452-.167-.539-.106-.085-.321-.112-.603-.077-.688.088-1.384.241-2.06.388l-.44.096c-.542.114-1.085.243-1.618.374l-.12.027.438.627c.032-.009.067-.016.102-.023.854-.14 1.709-.273 2.55-.401l.592-.096c.168-.024.339.039.448.163.453.515.169.939.053 1.12-.021.032-.048.064-.058.103-.178.455-.193.835-.049 1.119.129.264.43.495.883.661.375.144.784.23 1.212.318.178.038.356.076.531.117.051.014.104.018.16.025.264.03.7.083 1.018.549.117.189.1.381-.033.52l-.195.2c-.152.152-.309.311-.459.474l-.16.172c-.169.176-.335.35-.472.547-.234.335-.29.699-.15 1.005.129.294.423.506.825.603.285.068.607.07.949.075.161.002.328.002.491.009l.7.022c.163.007.314.093.398.225l.003.002c.084.133.092.295.015.426l-.254.464c-.177.318-.335.608-.522.879-.455.659-.564 1.291-.296 1.734.254.5.955.725 1.906.737.277.002.554.035.832.068l.133.013c.127.015.331.151.409.254.141.145.23.437.122.598l-.188.275c-.135.194-.274.401-.412.608-.064.104-.138.206-.212.309-.17.247-.33.479-.433.725-.303.711-.072 1.276.686 1.675.238.129.537.228.882.296.297.057.598.085.93.119l.524.051c.168.021.309.121.384.267.069.148.054.315-.044.437l-.331.398c-.231.277-.45.536-.631.815-.15.225-.354.56-.391.865-.078.603.287 1.105.972 1.339.293.1.611.155.95.21.17.027.337.057.504.088l1.123.233c.161.031.293.145.355.288.059.146.031.31-.074.422l-.326.351c-.193.205-.359.378-.506.574l-.105.143c-.295.396-.603.804-.817 1.229-.207.424-.243.842-.094 1.21.15.369.477.669.948.882.31.136.663.23 1.044.328.193.053.398.103.604.165.13.041.239.129.295.243.059.115.061.249.011.362l-.097.214c-.08.18-.16.36-.259.532-.151.264-.327.512-.501.756-.351.496-.426 1.049-.207 1.525.242.517.821.888 1.635 1.052.12.024.239.028.361.028.123.006.248.009.37.024.153.021.305.052.471.092l.205.05c.142.03.267.124.33.242.064.124.069.269.007.384l-.196.362c-.129.238-.247.453-.348.68-.171.377-.102.692.22.984.195.171.405.326.638.487l.353.261c.114.087.182.213.187.343.002.133-.059.255-.168.334-.839.611-1.779.886-2.774 1.154"/><path d="m58.9779117 33.8281514c-.417.193-.813.42-1.202.683-7.585 5.15-15.03 10.469-22.264 16.042-6.284 4.843-12.429 9.825-18.172 15.232-.395.37-.883.668-1.138 1.263l-.399-.952c.324-.28.566-.453.771-.661 4.504-4.455 9.32-8.595 14.311-12.558 6.328-5.021 12.829-9.831 19.47-14.486 1.195-.84 2.432-1.62 3.647-2.437.416-.28.812-.578 1.16-.984z"/><path d="m139.769212 27.1011514c-.303.173-.561.309-.809.459-2.566 1.571-4.963 3.352-7.31 5.186-10.085 7.897-19.843 16.139-29.327 24.661-5.2120003 4.687-10.4880003 9.311-15.3530003 14.321-.21.215-.517.38-.526.78l-2.256.901c.514-.184 1.023-.361 1.202-.956.074-.255.366-.441.564-.653 3.215-3.43 6.59-6.713 10.072-9.904 7.1000003-6.503 14.2180003-12.995 21.6750003-19.144 5.006-4.13 10.086-8.18 15.182-12.215 1.945-1.545 3.965-3.019 6.232-4.172.075-.037.103-.155.205-.315z"/><path d="m141.087812 29.3936514c-.222.09-.419.126-.559.23-11.445 8.124-22.279 16.93-32.868 25.996-5.627 4.816-11.0270003 9.869-16.5210003 14.819-.236.208-.432.457-.856.909l-1.336.436c.517-1.085 1.441-1.831 2.292-2.611 4.771-4.369 9.5150003-8.765 14.3650003-13.056 7.693-6.807 15.798-13.182 23.916-19.538 3.569-2.798 7.104-5.644 11.166-7.89z"/><path d="m64.1722117 32.5362514c-6.945 4.989-13.943 9.913-20.861 14.936-7.288 5.298-14.274 10.925-20.868 16.975-1.761 1.618-3.483 3.277-5.238 4.924l-.433-.893c.331-.291.559-.473.762-.677 3.14-3.197 6.464-6.22 9.897-9.134 10.42-8.844 21.591-16.817 32.922-24.606.404-.277.807-.561 1.213-.843z"/><path d="m16.9863117 68.3537514c.247 1.118.789 2.084 1.223 3.08.44 1.003.884 2.01 1.332 3.009.445 1.003.896 2.004 1.356 3.001.433.954.872 1.906 1.316 2.858.466.995.925 1.992 1.413 2.977.494.985 1.041 1.949 1.529 2.934.468.947 1.178 1.812 1.447 2.874-.553.052-.683-.238-.847-.479-1.367-2.014-2.621-4.085-3.628-6.264-1.924-4.172-3.87-8.333-5.709-12.533-1.158-2.646-2.145-5.35-3.195-8.029-.671-1.712-1.329-3.429-1.967-5.154-.309-.835-.561-1.688-.826-2.535-.043-.141-.064-.291-.053-.437.007-.071.086-.175.161-.196.081-.022.246-.003.281.051.218.333.461.668.605 1.028.854 2.123 1.688 4.252 2.528 6.381.542 1.381 1.084 2.763 1.667 4.243z"/><path d="m89.8967117 70.7414514c1.584-.519 2.869-.923 4.141-1.361 3.927-1.362 7.8570003-2.727 11.7810003-4.106 4.203-1.477 8.407-2.957 12.601-4.46 4.146-1.49 8.279-3.008 12.415-4.514 3.62-1.319 7.239-2.643 10.862-3.96 1.177-.425 2.354-.85 3.553-1.226.598-.189 1.22-.391 1.895-.255.045.289-.102.388-.303.462-3.72 1.338-7.446 2.672-11.159 4.024-5.5 2-10.991 4.031-16.498 6.025-4.708 1.702-9.422 3.39-14.147 5.05-3.972 1.398-7.9590003 2.756-11.9460003 4.108-4.229 1.434-8.46 2.856-12.699 4.258-3.765 1.247-7.548 2.446-11.319 3.679-3.813 1.251-7.618 2.527-11.439 3.767-4.301 1.39-8.591 2.793-12.925 4.102-2.308.699-4.69 1.212-7.043 1.805-.585.146-1.185.263-1.767.427-2.111.602-4.327.617-6.523.752-.297.02-.619-.059-.913-.143-.116-.032-.193-.205-.344-.388.299-.068.528-.138.769-.165 2.739-.319 5.466-.688 8.144-1.272 2.622-.57 5.224-1.2 7.771-1.998 3.451-1.082 6.913-2.141 10.358-3.236 3.254-1.036 6.49-2.114 9.734-3.167 2.626-.856 5.259-1.699 7.883-2.552 3.197-1.043 6.39-2.094 9.587-3.137.477-.159.965-.283 1.436-.456l2.256-.901c.97-.026 1.692-.492 2.503-.726z"/><path d="m90.3964117 8.32125139c-6.694-5.108-14.787-8.077-23.309-8.188-9.329-.119-18.385 3.323-25.66 9.208-2.249 1.81900001.928 4.91100001 3.165 3.10400001 12.333-9.97000001 30.251-10.36500001 42.648-.903 2.236 1.707 5.425-1.487 3.156-3.22100001"/><path d="m43.6195117 3.23705139c.076-.538.005-1.108-.192-1.61-.361-.925-1.073-1.634-2.133-1.62705139-.993.00505139-1.909.71605139-2.178 1.67305139-1.477 5.17-2.954 10.33900001-4.429 15.50600001-.242.863.096 1.829.803 2.342.787.576 1.604.514 2.477.134 3.905-1.692 8.488-1.925 12.633-.773 2.769.766 3.96-3.566 1.2-4.33-5.35-1.481-10.958-.944-16.08 1.279 1.092.825 2.185 1.647 3.277 2.473 1.474-5.166 2.948-10.33800001 4.425-15.50800001-1.441.016-2.878.034-4.317.046.156.398.103-.002.044.42-.174 1.202 1.114 2.235 2.209 2.227 1.342-.011 2.09-1.048 2.261-2.252"/></g></svg>