<svg height="468" viewBox="0 0 1049 468" width="1049" xmlns="http://www.w3.org/2000/svg" xmlns:xlink="http://www.w3.org/1999/xlink"><linearGradient id="a"><stop offset="0" stop-color="#9597a1"/><stop offset="1"/></linearGradient><linearGradient id="b" x1="60.450969%" x2="33.570998%" xlink:href="#a" y1="75.025837%" y2="-1.168904%"/><linearGradient id="c" x1="39.641596%" x2="65.913552%" xlink:href="#a" y1="81.520564%" y2="1.15127%"/><mask id="d" fill="#fff"><path d="m4.142 7.034h.449l-.914-1.863-1.569-3.197-.969-1.974h-1.139z" fill="#fff" fill-rule="evenodd"/></mask><mask id="e" fill="#fff"><path d="m1.071 6.305 2.468-4.33 1.125-1.975h-1.216l-.969 1.975-1.408 2.869-1.071 2.182h.66z" fill="#fff" fill-rule="evenodd"/></mask><g fill="none" fill-rule="evenodd" transform="translate(3.5318 3.6281)"><path d="m4.142 7.034h.449l-.914-1.863-1.569-3.197-.969-1.974h-1.139z" fill="url(#b)" mask="url(#d)" transform="translate(438.7162 347.7949)"/><path d="m1.071 6.305 2.468-4.33 1.125-1.975h-1.216l-.969 1.975-1.408 2.869-1.071 2.182h.66z" fill="url(#c)" mask="url(#e)" transform="translate(598.3202 347.7949)"/><path d="m1025.6994 38.563 16.236-14.614-15.019-16.642 3.248-5.277s-48.71-1.218-70.224 0-35.721 11.772-56.422 20.296c-20.703 8.524-48.305 11.365-48.305 11.365l-685.539 4.872-81.59-38.563h-81.183l8.93 6.901-15.831 18.266 15.831 15.019-15.831 15.019 15.831 17.049-15.831 15.831 15.831 18.672-15.831 17.048 15.831 17.455-15.831 15.831 15.831 16.237-15.831 17.048 15.831 16.643-15.831 16.237 15.831 17.454-15.831 17.455 15.831 14.207-15.831 16.642 15.831 18.673-15.831 17.27 15.831 16.015-15.831 17.049 15.831 14.613-15.831 16.642 15.831 17.861-15.831 16.643 15.831 19.078-15.831 17.048h88.896l80.372-35.721h681.074c26.791 0 109.523 29.048 109.523 29.048l82.07 2.208-17.454-23.137 17.454-14.613-17.454-18.673 17.454-15.424-17.454-14.208 17.454-16.642-17.454-19.078 17.454-13.802-17.454-17.86 17.454-15.019-17.454-15.019 17.454-15.831-17.454-19.484 17.454-15.425-17.454-17.049 17.454-15.425-17.454-18.266 17.454-14.207-18.671-17.045 18.671-16.646-17.454-16.643 17.454-19.078-15.019-12.584 15.019-16.643z" fill="#f1420d"/><path d="m6.901.0002h81.184l81.589 38.562 685.539-4.871s27.603-2.841 48.305-11.365c20.702-8.525 34.909-19.079 56.422-20.296 21.514-1.218 70.224 0 70.224 0l-3.247 5.277 15.019 16.642-16.237 14.613 16.237 19.078-15.019 16.643 15.019 12.584-17.455 19.078 17.455 16.643-18.672 16.646 18.672 17.045-17.455 14.207 17.455 18.266-17.455 15.425 17.455 17.049-17.455 15.425 17.455 19.484-17.455 15.831 17.455 15.019-17.455 15.019 17.455 17.86-17.455 13.801 17.455 19.079-17.455 16.642 17.455 14.207-17.455 15.425 17.455 18.673-17.455 14.613 17.455 23.137-82.071-2.208s-82.732-29.048-109.523-29.048h-681.073l-80.372 35.721h-88.897l15.831-17.048-15.831-19.079 15.831-16.642-15.831-17.861 15.831-16.642-15.831-14.613 15.831-17.049-15.831-16.015 15.831-17.27-15.831-18.673 15.831-16.642-15.831-14.208 15.831-17.454-15.831-17.455 15.831-16.236-15.831-16.643 15.831-17.049-15.831-16.236 15.831-15.831-15.831-17.455 15.831-17.048-15.831-18.673 15.831-15.83-15.831-17.049 15.831-15.019-15.831-15.019 15.831-18.266z" stroke="#fff" stroke-linecap="round" stroke-linejoin="round" stroke-width="7"/><path d="m959.9404 2.0299-.075 451.203" fill="#d74527"/><path d="m959.9404 2.0299-.075 451.203" stroke="#fff" stroke-linecap="round" stroke-linejoin="round" stroke-width="7"/><path d="m88.8966 459.9063v-459.906" fill="#d74527"/><path d="m88.8966 459.9063v-459.906" stroke="#fff" stroke-linecap="round" stroke-linejoin="round" stroke-width="7"/></g></svg>