<svg height="2450" viewBox="0 0 4070 2450" width="4070" xmlns="http://www.w3.org/2000/svg" xmlns:xlink="http://www.w3.org/1999/xlink"><mask id="a" fill="#fff"><path d="m0 2450h4070v-2450h-4070z" fill="#fff" fill-rule="evenodd"/></mask><g fill="none" fill-rule="evenodd"><g fill="#f1420d"><path d="m3677.4846 1451.918c-44.985 0-87.785 26.535-106.247 70.544-24.538 58.5 3.09 126.055 61.589 150.596 28.335 11.883 59.612 12.027 88.053.397 28.447-11.633 50.656-33.645 62.545-61.984l1.151.483-1.151-.483c24.538-58.499-3.089-126.057-61.589-150.597-14.49-6.079-29.541-8.956-44.351-8.956m-.158 232.657c-15.415 0-30.824-3.072-45.465-9.216-28.954-12.144-51.444-34.837-63.33-63.898-11.884-29.061-11.74-61.011.405-89.964 12.144-28.954 34.839-51.444 63.9-63.33 29.061-11.884 61.016-11.737 89.964.405 59.768 25.072 87.997 94.095 62.925 153.865-12.144 28.953-34.839 51.443-63.9 63.329-14.363 5.874-29.436 8.809-44.499 8.809"/><path d="m3603.4661 1612.1099-.951-2.311c3.613-1.483 7.222-3.014 10.833-4.543 7.539-3.199 15.336-6.502 23.112-9.345l.858 2.345c-7.717 2.821-15.485 6.113-22.995 9.297-3.621 1.536-7.236 3.07-10.857 4.557"/><path d="m3696.8293 1651.1259-8.47-34.376 2.423-.595 8.471 34.376z"/><path d="m3694.1279 1526.1122-2.263-1.058 18.523-39.555 2.263 1.058z"/><path d="m3637.9761 1541.7021c-4.813-5.9-8.236-10.95-11.547-15.834-3.279-4.837-6.671-9.84-11.413-15.65l1.936-1.58c4.81 5.898 8.233 10.947 11.542 15.828 3.282 4.84 6.673 9.843 11.418 15.656z"/><path d="m3724.276 1573.585h36.505v-2.497h-36.505z" mask="url(#a)"/><path d="m3762.0583 1572.5087c1.834 11.613 5.301 27.578 9.092 38.182 5.22-2.538 11.06-5.693 16.153-9.957 5.252-17.034 6.442-35.318 3.45-52.931-4.44-4.838-9.753-8.71-14.541-11.901-5.189 10.004-10.775 25.352-14.154 36.607zm7.702 41.615-.478-1.273c-4.064-10.811-7.819-27.997-9.735-40.235l-.044-.278.08-.273c3.548-11.862 9.582-28.383 15.068-38.555l.647-1.197 1.138.746c5.293 3.472 11.382 7.773 16.412 13.337l.241.268.061.356c3.16 18.231 1.924 37.183-3.57 54.803l-.107.347-.275.234c-5.781 4.913-12.45 8.385-18.209 11.135z" mask="url(#a)"/><path d="m3711.895 1484.8044c11.606 1.914 27.89 3.635 39.099 3.387-.412-3.126-1-6.947-1.936-10.872-8.27-6.705-17.394-12.223-27.125-16.402-9.536-4.091-19.608-6.878-29.946-8.28-4.055 2.414-7.712 5.13-10.384 7.212 7.853 8.063 20.666 18.196 30.292 24.955m36.792 5.908c-11.337 0-26.53-1.67-37.482-3.492l-.512-.209c-10.15-7.105-23.936-18.036-31.855-26.438l-.932-.99 1.066-.843c2.85-2.256 7.205-5.589 12.12-8.473l.368-.219.427.056c10.714 1.414 21.154 4.281 31.031 8.521 10.072 4.323 19.508 10.053 28.044 17.024l.325.265.097.408c1.168 4.781 1.824 9.413 2.263 12.917l.168 1.351-1.358.054c-1.197.046-2.458.068-3.77.068" mask="url(#a)"/><path d="m3577.2261 1510.3006c.466 6.288 2.094 12.408 3.738 17.709 10.326-4.477 24.348-12.855 34.083-19.455 5.908-10.162 13.298-24.728 17.055-35.346-5.356-1.263-11.522-2.46-17.764-2.514-15.3 9.992-28.12 23.675-37.112 39.606zm2.18 21.071-.412-1.297c-1.851-5.835-3.806-12.769-4.287-19.976l-.024-.371.18-.322c9.261-16.531 22.549-30.714 38.426-41.01l.312-.2h.371c7.154.01 14.151 1.475 20.054 2.904l1.322.322-.434 1.289c-3.675 10.953-11.613 26.65-17.853 37.346l-.375.402c-10.248 6.969-25.36 15.973-36.024 20.391z" mask="url(#a)"/><path d="m3596.8171 1649.1412c4.613.654 9.258.829 13.644.751-1.246-11.186-5.135-27.054-8.58-38.299-7.98-8.636-19.735-19.981-28.778-26.689-2.36 4.028-4.73 8.366-6.544 13.028 5.444 19.439 15.899 37.131 30.258 51.209m12.983 3.25c-4.42 0-9.082-.146-13.746-.839l-.4-.058-.288-.28c-14.924-14.53-25.757-32.86-31.326-53.014l-.107-.393.146-.383c2.075-5.447 4.867-10.416 7.576-14.975l.694-1.17 1.105.792c9.387 6.727 22.061 18.93 30.453 28.037l.276.478c3.647 11.842 7.814 28.936 8.904 40.43l.127 1.353s-2.724.022-3.414.022" mask="url(#a)"/><path d="m3674.8394 1681.8715c20.181.344 40.052-4.559 57.741-14.298 2.058-4.571 3.492-9.296 4.706-13.795-11.118-1.751-27.449-2.187-39.206-1.831-10.436 5.42-24.48 13.764-33.335 20.715 3.065 3.14 6.393 6.368 10.094 9.209m2.163 2.516c-.876 0-1.746-.01-2.624-.029l-.402-.01-.322-.244c-4.357-3.294-8.18-7.085-11.659-10.691l-.947-.98 1.056-.859c8.965-7.275 24.08-16.279 35.081-21.975l.534-.139c12.386-.388 29.973.098 41.342 2.082l1.339.232-.347 1.317c-1.35 5.117-2.938 10.586-5.373 15.894l-.171.373-.356.2c-17.516 9.724-37.221 14.829-57.151 14.829" mask="url(#a)"/><path d="m3637.9907 1596.2884c8.5 4.823 16.531 7.773 25.021 10.889 8.517 3.128 17.287 6.349 26.152 7.912 11.969-11.247 23.643-28 33.698-42.966-6.885-15.592-20.061-33.766-30.35-45.216-15.251 2.065-37.059 7.395-52.405 14.826-2.016 17.909-3.959 38.229-2.116 54.555zm51.973 21.471-.608-.103c-9.301-1.56-18.386-4.896-27.171-8.124-8.809-3.233-17.096-6.276-25.984-11.391l-.543-.312-.073-.622c-2.022-16.904.034-37.994 2.118-56.437l.079-.675.609-.302c15.846-7.822 38.762-13.393 54.445-15.449l.646-.083.439.483c10.628 11.718 24.489 30.799 31.506 47.011l.271.624-.381.566c-10.347 15.412-22.428 32.825-34.905 44.394z" mask="url(#a)"/></g><path d="m4068.9924 1584.9122c-229.455-297.334-559.215-410.446-1096.558-79.004-739.725 456.275-1926.293 489.243-1948.619 180.198-24.011-332.387 625.115 682.65-1024.823 154.245" mask="url(#a)" stroke="#f1420d" stroke-dasharray="12.473 24.945" stroke-linecap="round" stroke-width="4.158"/></g></svg>