<svg height="676" viewBox="0 0 1530 676" width="1530" xmlns="http://www.w3.org/2000/svg"><path d="m3420.1499 983.9781 23.839-21.455-22.051-24.435 4.767-7.748s-71.517-1.788-103.104 0-52.446 17.283-82.841 29.799c-30.395 12.515-70.921 16.687-70.921 16.687l-1006.523 7.152-119.791-56.618h-119.196l13.112 10.132-23.244 26.819 23.244 22.051-23.244 22.051 23.244 25.031-23.244 23.243 23.244 27.415-23.244 25.031 23.244 25.628-23.244 23.243 23.244 23.839-23.244 25.031 23.244 24.435-23.244 23.839 23.244 25.627-23.244 25.627 23.244 20.86-23.244 24.435 23.244 27.415-23.244 25.356 23.244 23.514-23.244 25.031 23.244 21.455-23.244 24.435 23.244 26.223-23.244 24.436 23.244 28.011-23.244 25.031h130.52l118.003-52.446h999.967c39.335 0 160.804 42.648 160.804 42.648l120.498 3.242-25.627-33.971 25.627-21.455-25.627-27.415 25.627-22.647-25.627-20.86 25.627-24.435-25.627-28.011 25.627-20.263-25.627-26.223 25.627-22.051-25.627-22.051 25.627-23.243-25.627-28.607 25.627-22.648-25.627-25.031 25.627-22.647-25.627-26.819 25.627-20.859-27.415-25.027 27.415-24.44-25.627-24.435 25.627-28.011-22.051-18.475 22.051-24.435z" fill="#f1420d" fill-rule="evenodd" transform="translate(-1914 -927)"/></svg>