<svg height="2157" viewBox="0 0 1125 2157" width="1125" xmlns="http://www.w3.org/2000/svg" xmlns:xlink="http://www.w3.org/1999/xlink"><mask id="a" fill="#fff"><path d="m0 0h1123.963v2156.14431h-1123.963z" fill="#fff" fill-rule="evenodd"/></mask><g fill="none" fill-rule="evenodd" transform="translate(.518 .520589)"><path d="m-722.51 87.2633107c450.149-161.144 750.142-148.611 912.336 469.7350003 211.554 807.081999 624.31 1156.188999 852.296 943.113999 184.383-172.258-539.744-154.294 485.853 656.032" mask="url(#a)" stroke="#f1420d" stroke-dasharray="6.6 13.2" stroke-linecap="round" stroke-width="2.2"/><g transform="translate(689.761989 1289.724961)"><path d="m106.500811 2.31494931c-40.6829996 0-79.3899996 23.99699999-96.0859996 63.79799999-22.192 52.9049997 2.793 113.9999997 55.699 136.1939997 25.624 10.747 53.9099996 10.877 79.6319996.359 25.726-10.52 45.812-30.427 56.564-56.056l1.04.437-1.04-.437c22.191-52.9049997-2.794-114.0019997-55.7-136.1959997-13.104-5.49699999-26.716-8.09899999-40.109-8.09899999m-.143 210.40799969c-13.9409996 0-27.8759996-2.778-41.1169996-8.335-26.185-10.983-46.524-31.505-57.27400001-57.787-10.747-26.282-10.617-55.1759997.366-81.3609997 10.98300001-26.185 31.50800001-46.524 57.79000001-57.27399999 26.281-10.747 55.1799996-10.615 81.3609996.367 54.052 22.67399999 79.581 85.09599999 56.907 139.14999969-10.983 26.185-31.508 46.524-57.789 57.274-12.99 5.312-26.622 7.966-40.244 7.966" fill="#f1420d"/><path d="m106.500811 2.31494931c-40.6829996 0-79.3899996 23.99699999-96.0859996 63.79799999-22.192 52.9049997 2.793 113.9999997 55.699 136.1939997 25.624 10.747 53.9099996 10.877 79.6319996.359 25.726-10.52 45.812-30.427 56.564-56.056l1.04.437-1.04-.437c22.191-52.9049997-2.794-114.0019997-55.7-136.1959997-13.104-5.49699999-26.716-8.09899999-40.109-8.09899999zm-.143 210.40799969c-13.9409996 0-27.8759996-2.778-41.1169996-8.335-26.185-10.983-46.524-31.505-57.27400001-57.787-10.747-26.282-10.617-55.1759997.366-81.3609997 10.98300001-26.185 31.50800001-46.524 57.79000001-57.27399999 26.281-10.747 55.1799996-10.615 81.3609996.367 54.052 22.67399999 79.581 85.09599999 56.907 139.14999969-10.983 26.185-31.508 46.524-57.789 57.274-12.99 5.312-26.622 7.966-40.244 7.966z" stroke="#f1420d" stroke-width="2"/><path d="m39.5605114 147.187649-.86-2.09c3.268-1.341 6.531-2.726 9.797-4.108 6.818-2.893 13.87-5.881 20.901-8.452l.777 2.121c-6.979 2.551-14.005 5.528-20.796 8.408-3.275 1.389-6.545 2.776-9.819 4.121" fill="#f1420d"/><path d="m39.5605114 147.187649-.86-2.09c3.268-1.341 6.531-2.726 9.797-4.108 6.818-2.893 13.87-5.881 20.901-8.452l.777 2.121c-6.979 2.551-14.005 5.528-20.796 8.408-3.275 1.389-6.545 2.776-9.819 4.121z" stroke="#f1420d" stroke-width="2"/><path d="m123.995511 182.472549-7.66-31.089 2.191-.538 7.661 31.089z" fill="#f1420d"/><path d="m123.995511 182.472549-7.66-31.089 2.191-.538 7.661 31.089z" stroke="#f1420d" stroke-width="2"/><path d="m121.552311 69.4140493-2.046-.957 16.751-35.772 2.047.957z" fill="#f1420d"/><path d="m121.552311 69.4140493-2.046-.957 16.751-35.772 2.047.957z" stroke="#f1420d" stroke-width="2"/><path d="m70.7705114 83.5129493c-4.353-5.336-7.449-9.903-10.443-14.319-2.966-4.375-6.033-8.9-10.322-14.155l1.751-1.428c4.35 5.334 7.446 9.9 10.439 14.315 2.968 4.377 6.035 8.901 10.326 14.158z" fill="#f1420d"/><path d="m70.7705114 83.5129493c-4.353-5.336-7.449-9.903-10.443-14.319-2.966-4.375-6.033-8.9-10.322-14.155l1.751-1.428c4.35 5.334 7.446 9.9 10.439 14.315 2.968 4.377 6.035 8.901 10.326 14.158z" stroke="#f1420d" stroke-width="2"/><path d="m148.817011 112.347449h33.014v-2.258h-33.014z" fill="#f1420d"/><path d="m148.817011 112.347449h33.014v-2.258h-33.014z" stroke="#f1420d" stroke-width="2"/><path d="m182.986711 111.373549c1.658 10.503 4.794 24.941 8.222 34.531 4.721-2.296 10.002-5.149 14.609-9.006 4.749-15.404 5.826-31.939 3.12-47.8689997-4.015-4.374-8.82-7.876-13.151-10.762-4.692 9.047-9.744 22.9279997-12.8 33.1059997zm6.966 37.635-.432-1.151c-3.676-9.777-7.072-25.32-8.805-36.387l-.04-.251.073-.247c3.208-10.728 8.666-25.6689997 13.627-34.8679997l.584-1.083 1.03.675c4.787 3.14 10.293 7.029 14.842 12.061l.218.243.055.322c2.858 16.4869997 1.74 33.6259997-3.228 49.5619997l-.097.313-.249.212c-5.228 4.443-11.259 7.583-16.467 10.07z" fill="#f1420d"/><path d="m182.986711 111.373549c1.658 10.503 4.794 24.941 8.222 34.531 4.721-2.296 10.002-5.149 14.609-9.006 4.749-15.404 5.826-31.939 3.12-47.8689997-4.015-4.374-8.82-7.876-13.151-10.762-4.692 9.047-9.744 22.9279997-12.8 33.1059997zm6.966 37.635-.432-1.151c-3.676-9.777-7.072-25.32-8.805-36.387l-.04-.251.073-.247c3.208-10.728 8.666-25.6689997 13.627-34.8679997l.584-1.083 1.03.675c4.787 3.14 10.293 7.029 14.842 12.061l.218.243.055.322c2.858 16.4869997 1.74 33.6259997-3.228 49.5619997l-.097.313-.249.212c-5.228 4.443-11.259 7.583-16.467 10.07z" stroke="#f1420d" stroke-width="2"/><path d="m137.620311 32.0564493c10.496 1.731 25.223 3.288 35.36 3.063-.373-2.827-.904-6.282-1.751-9.832-7.479-6.064-15.731-11.054-24.531-14.834-8.624-3.69999999-17.733-6.21999999-27.082-7.48799999-3.667 2.183-6.975 4.639-9.391 6.523 7.102 7.29199999 18.69 16.45599999 27.395 22.56799999m33.274 5.343c-10.253 0-23.993-1.511-33.898-3.158l-.463-.189c-9.18-6.426-21.647-16.311-28.809-23.91l-.842-.89499999.964-.763c2.577-2.039 6.515-5.054 10.961-7.662l.333-.199.386.051c9.688 1.279 19.13 3.872 28.063 7.707 9.109 3.90899999 17.642 9.09099999 25.362 15.39499999l.294.24.088.369c1.056 4.324 1.649 8.513 2.046 11.682l.152 1.222-1.228.048c-1.083.042-2.223.062-3.409.062" fill="#f1420d"/><path d="m137.620311 32.0564493c10.496 1.731 25.223 3.288 35.36 3.063-.373-2.827-.904-6.282-1.751-9.832-7.479-6.064-15.731-11.054-24.531-14.834-8.624-3.69999999-17.733-6.21999999-27.082-7.48799999-3.667 2.183-6.975 4.639-9.391 6.523 7.102 7.29199999 18.69 16.45599999 27.395 22.56799999zm33.274 5.343c-10.253 0-23.993-1.511-33.898-3.158l-.463-.189c-9.18-6.426-21.647-16.311-28.809-23.91l-.842-.89499999.964-.763c2.577-2.039 6.515-5.054 10.961-7.662l.333-.199.386.051c9.688 1.279 19.13 3.872 28.063 7.707 9.109 3.90899999 17.642 9.09099999 25.362 15.39499999l.294.24.088.369c1.056 4.324 1.649 8.513 2.046 11.682l.152 1.222-1.228.048c-1.083.042-2.223.062-3.409.062z" stroke="#f1420d" stroke-width="2"/><path d="m15.8299114 55.1144493c.421 5.687 1.894 11.221 3.38 16.015 9.339-4.048 22.02-11.625 30.824-17.594 5.343-9.19 12.027-22.363 15.425-31.966-4.845-1.142-10.421-2.225-16.066-2.273-13.837 9.036-25.431 21.41-33.563 35.818zm1.971 19.056-.372-1.173c-1.674-5.277-3.442-11.548-3.877-18.066l-.022-.335.163-.291c8.375-14.95 20.392-27.777 34.752-37.089l.282-.181h.335c6.47.009 12.798 1.334 18.136 2.626l1.196.292-.393 1.166c-3.323 9.905-10.503 24.101-16.145 33.774l-.34.364c-9.267 6.302-22.934 14.446-32.579 18.441z" fill="#f1420d"/><path d="m15.8299114 55.1144493c.421 5.687 1.894 11.221 3.38 16.015 9.339-4.048 22.02-11.625 30.824-17.594 5.343-9.19 12.027-22.363 15.425-31.966-4.845-1.142-10.421-2.225-16.066-2.273-13.837 9.036-25.431 21.41-33.563 35.818zm1.971 19.056-.372-1.173c-1.674-5.277-3.442-11.548-3.877-18.066l-.022-.335.163-.291c8.375-14.95 20.392-27.777 34.752-37.089l.282-.181h.335c6.47.009 12.798 1.334 18.136 2.626l1.196.292-.393 1.166c-3.323 9.905-10.503 24.101-16.145 33.774l-.34.364c-9.267 6.302-22.934 14.446-32.579 18.441z" stroke="#f1420d" stroke-width="2"/><path d="m33.5474114 180.677649c4.172.591 8.372.75 12.339.679-1.126-10.117-4.643-24.467-7.759-34.636-7.217-7.811-17.848-18.071-26.026-24.137-2.13500001 3.643-4.27800001 7.566-5.91800001 11.782 4.92300001 17.58 14.37900001 33.58 27.36400001 46.312m11.742 2.939c-3.998 0-8.214-.132-12.432-.758l-.362-.053-.26-.254c-13.497-13.14-23.29400001-29.717-28.33000001-47.944l-.097-.355.132-.346c1.877-4.926 4.401-9.42 6.85100001-13.543l.628-1.059.999.717c8.49 6.084 19.952 17.12 27.541 25.356l.249.432c3.299 10.71 7.068 26.169 8.053 36.564l.115 1.223s-2.463.02-3.087.02" fill="#f1420d"/><path d="m33.5474114 180.677649c4.172.591 8.372.75 12.339.679-1.126-10.117-4.643-24.467-7.759-34.636-7.217-7.811-17.848-18.071-26.026-24.137-2.13500001 3.643-4.27800001 7.566-5.91800001 11.782 4.92300001 17.58 14.37900001 33.58 27.36400001 46.312zm11.742 2.939c-3.998 0-8.214-.132-12.432-.758l-.362-.053-.26-.254c-13.497-13.14-23.29400001-29.717-28.33000001-47.944l-.097-.355.132-.346c1.877-4.926 4.401-9.42 6.85100001-13.543l.628-1.059.999.717c8.49 6.084 19.952 17.12 27.541 25.356l.249.432c3.299 10.71 7.068 26.169 8.053 36.564l.115 1.223s-2.463.02-3.087.02z" stroke="#f1420d" stroke-width="2"/><path d="m104.108311 210.278049c18.251.311 36.222-4.123 52.219-12.93 1.862-4.135 3.158-8.408 4.256-12.476-10.055-1.584-24.824-1.978-35.457-1.656-9.437 4.901-22.138 12.447-30.1469996 18.734 2.772 2.84 5.7819996 5.759 9.1289996 8.328m1.956 2.276c-.792 0-1.579-.009-2.373-.027l-.364-.009-.291-.22c-3.9399996-2.979-7.3979996-6.408-10.5439996-9.669l-.856-.887.955-.776c8.1079996-6.58 21.7769996-14.723 31.7259996-19.874l.483-.126c11.202-.35 27.106.089 37.389 1.884l1.21.209-.313 1.191c-1.222 4.628-2.657 9.574-4.86 14.374l-.154.338-.322.181c-15.841 8.793-33.662 13.411-51.686 13.411" fill="#f1420d"/><path d="m104.108311 210.278049c18.251.311 36.222-4.123 52.219-12.93 1.862-4.135 3.158-8.408 4.256-12.476-10.055-1.584-24.824-1.978-35.457-1.656-9.437 4.901-22.138 12.447-30.1469996 18.734 2.772 2.84 5.7819996 5.759 9.1289996 8.328zm1.956 2.276c-.792 0-1.579-.009-2.373-.027l-.364-.009-.291-.22c-3.9399996-2.979-7.3979996-6.408-10.5439996-9.669l-.856-.887.955-.776c8.1079996-6.58 21.7769996-14.723 31.7259996-19.874l.483-.126c11.202-.35 27.106.089 37.389 1.884l1.21.209-.313 1.191c-1.222 4.628-2.657 9.574-4.86 14.374l-.154.338-.322.181c-15.841 8.793-33.662 13.411-51.686 13.411z" stroke="#f1420d" stroke-width="2"/><path d="m70.7837114 132.879249c7.687 4.362 14.95 7.03 22.628 9.848 7.7019996 2.829 15.6339996 5.742 23.6509996 7.155 10.825-10.172 21.382-25.323 30.476-38.857-6.227-14.1009997-18.143-30.5369997-27.448-40.8919997-13.793 1.867-33.5149996 6.688-47.3929996 13.408-1.824 16.196-3.581 34.5729997-1.914 49.3379997zm47.0029996 19.418-.55-.093c-8.412-1.411-16.628-4.428-24.5719996-7.347-7.967-2.924-15.462-5.676-23.499-10.302l-.492-.282-.066-.563c-1.828-15.287.031-34.3609997 1.916-51.0389997l.07-.611.552-.274c14.33-7.073 35.0549996-12.112 49.2379996-13.971l.584-.075.397.437c9.612 10.597 22.148 27.854 28.494 42.5149997l.244.565-.344.511c-9.358 13.938-20.284 29.686-31.567 40.149z" fill="#f1420d"/><path d="m70.7837114 132.879249c7.687 4.362 14.95 7.03 22.628 9.848 7.7019996 2.829 15.6339996 5.742 23.6509996 7.155 10.825-10.172 21.382-25.323 30.476-38.857-6.227-14.1009997-18.143-30.5369997-27.448-40.8919997-13.793 1.867-33.5149996 6.688-47.3929996 13.408-1.824 16.196-3.581 34.5729997-1.914 49.3379997zm47.0029996 19.418-.55-.093c-8.412-1.411-16.628-4.428-24.5719996-7.347-7.967-2.924-15.462-5.676-23.499-10.302l-.492-.282-.066-.563c-1.828-15.287.031-34.3609997 1.916-51.0389997l.07-.611.552-.274c14.33-7.073 35.0549996-12.112 49.2379996-13.971l.584-.075.397.437c9.612 10.597 22.148 27.854 28.494 42.5149997l.244.565-.344.511c-9.358 13.938-20.284 29.686-31.567 40.149z" stroke="#f1420d" stroke-width="2"/></g></g></svg>